<svg width="43" height="53" viewBox="0 0 43 53" fill="none" xmlns="http://www.w3.org/2000/svg">
<path d="M26.5994 44.0159C26.5994 47.1371 24.1889 52.5672 21.2797 52.5672C18.2874 52.5672 15.96 47.1371 15.96 44.0159L15.96 33.3747L1.33905 24.2028C0.507843 23.6826 0.000808716 22.7152 0.000808716 21.6657V16.5368C0.000808716 15.5694 0.848637 14.8667 1.69647 15.1313L15.96 19.6032V10.2214L11.1722 6.27886C10.8397 6.00507 10.6403 5.56701 10.6403 5.1107V1.27768C10.6403 0.565828 11.1639 0 11.8039 0C11.912 0 12.0201 0.0182525 12.1281 0.0456313L21.2797 2.9204L30.4313 0.0456313C30.5393 0.00912625 30.6474 0 30.7555 0C31.4038 0 31.9191 0.574954 31.9191 1.27768V5.1107C31.9191 5.56701 31.7197 6.00507 31.3872 6.27886L26.5994 10.2214V19.6123L40.8629 15.1405C41.7108 14.8667 42.5586 15.5694 42.5586 16.5368V21.6657C42.5586 22.7152 42.0432 23.6826 41.2204 24.2028L26.5994 33.3747V44.0159Z" fill="url(#paint0_linear_2899_849)"/>
<defs>
<linearGradient id="paint0_linear_2899_849" x1="23.5" y1="45.5" x2="26" y2="7" gradientUnits="userSpaceOnUse">
<stop stop-color="#D63715"/>
<stop offset="1" stop-color="#EA7D06"/>
</linearGradient>
</defs>
</svg>
