<svg width="1698" height="956" viewBox="0 0 1698 956" fill="none" xmlns="http://www.w3.org/2000/svg">
<g opacity="0.3">
<g opacity="0.0476">
<path d="M25.1711 97.2042C9.07576 140.691 23.6911 188.914 64.2847 226.191C70.7848 232.186 77.9869 237.965 85.6893 243.359C108.743 259.515 138.713 273.29 172.366 283.192C217.711 296.547 266.785 302.296 310.552 299.374C313.634 299.171 316.747 298.917 319.822 298.611C369.727 293.641 406.901 277.272 440.704 260.926C451.391 255.794 462.288 250.267 472.822 244.925C478.533 242.025 484.277 239.11 490.059 236.23C510.724 225.856 529.678 217.449 548.013 210.516C596.85 192.038 641.144 184.956 683.499 188.864C745.963 194.63 792.839 221.731 842.461 250.419C884.637 274.799 928.23 300.003 982.314 310.859C1046.71 323.73 1112.38 314.389 1173.74 302.374C1178.73 301.406 1183.72 300.421 1188.73 299.437C1242.68 288.828 1298.44 277.854 1356.67 282.443C1419.49 287.384 1487.93 318.468 1489.66 356.85C1490.89 384.05 1459.85 403.77 1441.25 413.111C1422.08 422.724 1399.75 430.248 1378.16 437.523C1368.42 440.8 1358.35 444.193 1348.68 447.736C1321.34 457.765 1295.79 469.691 1272.71 483.187C1189.67 531.735 1139.5 600.435 1135.1 671.654C1134.49 681.484 1134.72 691.546 1135.8 701.578C1144.89 785.401 1210.95 868.637 1317.02 929.918L1319.13 928.613C1213.68 867.695 1148.03 784.969 1138.99 701.652C1137.91 691.688 1137.67 681.685 1138.28 671.924C1142.67 601.14 1192.53 532.874 1275.07 484.617C1297.99 471.21 1323.39 459.364 1350.54 449.397C1360.16 445.869 1370.19 442.483 1379.92 439.215C1401.63 431.909 1424.07 424.346 1443.44 414.637C1462.44 405.113 1494.13 384.954 1492.86 357.009C1491.03 316.266 1420.79 285.608 1356.76 280.567C1297.83 275.946 1241.72 286.968 1187.46 297.634C1182.47 298.619 1177.48 299.595 1172.49 300.563C1111.61 312.475 1046.55 321.76 983.063 309.065C929.761 298.363 886.472 273.331 844.584 249.124C796.721 221.46 747.243 192.854 683.675 186.982C640.561 182.997 595.572 190.158 546.12 208.871C527.685 215.844 508.631 224.29 487.884 234.712C482.104 237.601 476.36 240.517 470.631 243.416C460.113 248.75 449.233 254.26 438.579 259.385C405.055 275.587 368.23 291.822 319.021 296.713C316.015 297.013 312.953 297.26 309.922 297.465C266.767 300.339 218.349 294.663 173.583 281.482C140.385 271.707 110.807 258.124 88.0794 242.193C80.4861 236.879 73.3759 231.18 66.9671 225.257C26.8715 188.432 12.4382 140.779 28.349 97.7728L25.1711 97.2042Z" fill="#E84B20"/>
</g>
<g opacity="0.0952">
<path d="M35.7482 92.8607C18.7462 135.931 35.0142 185.337 78.1984 221.785C85.151 227.651 92.678 233.203 100.579 238.289C124.41 253.654 154.17 266.263 189.062 275.781C233.63 287.942 284.197 294.129 327.832 292.767C330.889 292.673 333.943 292.537 336.942 292.357C383.932 289.459 416.261 277.402 453.611 261.934C467.752 256.081 482.024 249.719 497.123 242.992L503.953 239.951C525.877 230.114 545.362 222.125 563.501 215.51C595.832 203.701 645.099 188.465 699.524 192.551C761.388 197.188 808.45 222.925 858.286 250.174C899.944 272.951 943.017 296.511 995.775 306.804C1058.47 318.929 1123.63 310.732 1184.7 300.074L1193.82 298.476C1248.33 288.92 1304.7 279.034 1362.2 284.882C1421.78 290.937 1486.55 321.254 1487.29 359.661C1487.81 386.276 1457.78 405.828 1439.84 415.116C1421.45 424.637 1400.12 432.212 1379.5 439.53C1369.96 442.916 1360.08 446.427 1350.63 450.081C1324.27 460.28 1299.82 472.271 1278 485.725C1199.49 534.056 1153.89 601.733 1152.89 671.395C1152.74 680.96 1153.43 690.758 1154.94 700.507C1167.46 781.657 1235 862.103 1340.19 921.213L1342.26 919.89C1237.7 861.143 1170.6 781.19 1158.14 700.529C1156.65 690.85 1155.97 681.112 1156.11 671.607C1157.11 602.388 1202.42 535.146 1280.44 487.124C1302.13 473.759 1326.41 461.839 1352.59 451.711C1361.99 448.072 1371.85 444.578 1381.38 441.191C1402.11 433.835 1423.54 426.228 1442.11 416.611C1460.42 407.13 1491.08 387.156 1490.54 359.83C1489.77 320.338 1423.46 289.191 1362.47 282.995C1304.22 277.087 1247.51 287.022 1192.66 296.634L1183.54 298.232C1122.95 308.804 1058.33 316.942 996.505 304.992C944.494 294.844 901.726 271.448 860.354 248.826C812.289 222.542 762.597 195.375 699.63 190.65C644.275 186.489 594.389 201.9 561.674 213.842C543.469 220.481 523.919 228.51 501.928 238.37L495.098 241.412C480.015 248.13 465.759 254.484 451.668 260.322C414.65 275.647 382.638 287.604 336.346 290.448C333.415 290.623 330.396 290.76 327.407 290.855C284.284 292.201 234.287 286.076 190.209 274.051C155.773 264.66 126.386 252.217 102.897 237.069C95.1039 232.055 87.6682 226.574 80.8247 220.789C38.1907 184.803 22.1431 136.02 38.9289 93.4637L35.7482 92.8607Z" fill="#E84B20"/>
</g>
<g opacity="0.1429">
<path d="M46.3516 88.5197C28.1467 131.974 45.6979 181.354 92.1564 217.39C99.4887 223.073 107.341 228.406 115.531 233.238C139.727 247.567 170.093 259.387 205.818 268.38C249.789 279.455 300.605 285.942 345.172 286.159C348.204 286.176 351.182 286.157 354.105 286.102C399.227 285.107 427.927 276.285 466.577 262.945C480.843 258.018 497.155 251.895 517.924 243.676C537.099 236.078 557.625 228.039 579.064 220.5C617.81 206.856 664.369 193.296 715.624 196.235C776.837 199.74 824.084 224.104 874.116 249.903C915.277 271.129 957.83 293.07 1009.31 302.749C1073.15 314.753 1139.01 306.478 1195.75 297.775L1198.62 297.333C1256.41 288.469 1310.98 280.085 1367.86 287.316C1425.68 294.655 1485.32 324.779 1485.06 362.473C1484.88 388.497 1455.85 407.879 1438.57 417.122C1420.96 426.542 1400.66 434.154 1381.02 441.514C1371.66 445.026 1361.96 448.654 1352.71 452.426C1327.33 462.797 1304 474.852 1283.39 488.272C1208.32 537.084 1168.32 602.028 1170.79 671.134C1171.12 680.452 1172.25 689.975 1174.18 699.432C1190.13 777.882 1259.12 855.536 1363.44 912.492L1365.48 911.142C1261.78 854.541 1193.22 777.363 1177.36 699.395C1175.45 689.998 1174.33 680.543 1174.01 671.286C1171.56 602.633 1211.28 538.124 1285.86 489.629C1306.34 476.298 1329.5 464.323 1354.7 454.023C1363.9 450.267 1373.56 446.645 1382.91 443.141C1402.65 435.742 1423.05 428.091 1440.84 418.584C1458.47 409.156 1488.1 389.358 1488.28 362.659C1488.55 323.888 1427.45 292.946 1368.23 285.431C1310.62 278.125 1255.69 286.548 1197.55 295.468L1194.67 295.91C1138.36 304.542 1073.02 312.766 1010 300.919C959.237 291.374 916.969 269.58 876.094 248.5C825.616 222.472 777.957 197.89 715.644 194.321C663.531 191.354 616.432 205.023 577.287 218.816C555.799 226.379 535.239 234.434 516.031 242.04C495.313 250.244 479.051 256.351 464.834 261.262C426.569 274.478 398.153 283.217 353.732 284.193C350.86 284.249 347.916 284.269 344.936 284.254C300.779 284.025 250.447 277.606 206.861 266.629C171.574 257.753 141.578 246.083 117.723 231.953C109.66 227.194 101.915 221.933 94.6922 216.33C48.8719 180.786 31.561 132.064 49.5359 89.1657L46.3516 88.5197Z" fill="#E84B20"/>
</g>
<g opacity="0.1905">
<path d="M56.9373 84.1745C37.7745 127.432 57.064 177.991 106.097 212.984C113.791 218.475 121.986 223.59 130.447 228.167C154.905 241.456 185.896 252.488 222.54 260.959C265.046 270.791 316.041 277.56 362.462 279.541C365.435 279.667 368.371 279.775 371.235 279.83C415.411 280.692 441.607 274.399 479.476 263.938C494.908 259.674 512.532 254.099 531.828 247.376C538.743 244.969 545.872 242.45 553.169 239.885C566.612 235.143 580.504 230.237 594.561 225.474C634.097 212.051 680.509 197.887 731.659 199.901C792.307 202.287 839.826 225.288 890.157 249.633C930.732 269.271 972.696 289.572 1022.76 298.668C1084.57 309.888 1147.52 303.232 1206.69 295.449C1258.33 288.658 1316.86 280.956 1373.41 289.724C1427.37 298.081 1484 327.391 1482.72 365.262C1482.07 384.111 1465.91 403.24 1437.18 419.114C1420.39 428.408 1401.11 436.047 1382.47 443.433C1373.27 447.079 1363.74 450.85 1354.67 454.765C1330.28 465.307 1308.07 477.436 1288.67 490.813C1218.15 539.384 1182.61 603.335 1188.58 670.879C1189.37 679.94 1190.96 689.19 1193.29 698.372C1212.62 774.094 1283.06 848.966 1386.59 903.786L1388.57 902.417C1285.69 847.935 1215.66 773.53 1196.45 698.282C1194.14 689.17 1192.56 679.988 1191.78 670.987C1185.84 603.914 1221.12 540.399 1291.17 492.163C1310.43 478.875 1332.47 466.834 1356.69 456.364C1365.72 452.473 1375.21 448.709 1384.39 445.071C1403.12 437.645 1422.5 429.976 1439.46 420.592C1468.74 404.404 1485.24 384.843 1485.89 365.514C1487.21 326.576 1429.16 296.466 1373.86 287.893C1316.57 279.023 1257.65 286.763 1205.66 293.602C1146.87 301.33 1084.38 307.95 1023.34 296.858C973.932 287.887 932.253 267.716 891.945 248.215C841.168 223.641 793.205 200.437 731.474 198.005C731.011 197.99 730.547 197.974 730.101 197.959C678.699 196.219 632.252 210.374 592.717 223.805C578.643 228.576 564.734 233.481 551.275 238.231C543.996 240.805 536.866 243.316 529.951 245.723C510.721 252.423 493.181 257.966 477.832 262.207C440.348 272.562 414.455 278.78 370.948 277.931C368.135 277.87 365.251 277.772 362.313 277.647C316.218 275.685 265.569 268.963 223.377 259.201C187.152 250.83 156.549 239.939 132.431 226.832C124.095 222.319 116.025 217.277 108.423 211.866C60.1476 177.36 41.1533 127.504 60.0545 84.8356L56.9373 84.1745Z" fill="#E84B20"/>
</g>
<g opacity="0.2381">
<path d="M67.568 79.8268C47.1448 123.612 67.7529 174.155 120.082 208.573C128.138 213.872 136.659 218.76 145.427 223.1C170.382 235.52 201.101 245.476 239.307 253.54C292.596 264.8 350.205 270.512 379.796 272.916C382.726 273.161 385.586 273.377 388.391 273.558C433.621 276.458 457.375 272.176 492.402 264.942C508.289 261.659 526.746 256.873 545.793 251.099C563.451 245.739 582.963 239.356 601.824 233.182L610.137 230.463C655.152 215.72 699.556 202.564 747.77 203.581C807.922 204.85 855.764 226.481 906.463 249.39C946.401 267.437 987.689 286.095 1036.31 294.606C1100.73 305.874 1168.36 298.523 1217.75 293.143C1275.27 286.885 1327.11 282.486 1379.06 292.144C1431.2 301.843 1482.79 331.031 1480.49 368.061C1479.35 386.469 1463.53 405.312 1435.92 421.115C1419.94 430.276 1401.69 437.924 1384.05 445.328C1375 449.124 1365.66 453.048 1356.77 457.106C1333.35 467.836 1312.28 480.03 1294.1 493.365C1228.1 541.693 1197 604.64 1206.55 670.623C1207.81 679.436 1209.84 688.404 1212.6 697.302C1235.26 770.277 1307.16 842.355 1409.91 895.064L1411.85 893.677C1309.73 841.288 1238.26 769.66 1215.76 697.152C1213.02 688.323 1211.01 679.417 1209.76 670.663C1200.28 605.153 1231.15 542.651 1296.69 494.667C1314.74 481.43 1335.66 469.325 1358.89 458.674C1367.73 454.631 1377.07 450.716 1386.08 446.935C1403.8 439.5 1422.13 431.812 1438.26 422.562C1466.39 406.461 1482.54 387.201 1483.7 368.332C1486.06 330.261 1433.18 300.269 1379.72 290.329C1327.06 280.544 1274.81 284.955 1216.88 291.268C1165.07 296.907 1100.59 303.929 1036.93 292.78C988.958 284.385 947.936 265.848 908.265 247.921C857.104 224.809 808.871 202.992 747.586 201.686C698.601 200.659 653.81 213.914 608.428 228.781L600.116 231.5C581.271 237.666 561.794 244.05 544.168 249.394C525.239 255.13 506.899 259.885 491.147 263.147C456.524 270.301 433.023 274.522 388.465 271.68C385.694 271.5 382.869 271.285 379.973 271.042C350.503 268.65 293.169 262.955 240.16 251.766C202.355 243.792 172.004 233.95 147.388 221.705C138.762 217.429 130.368 212.614 122.42 207.396C71.593 173.994 50.8301 123.01 70.653 80.5126L67.568 79.8268Z" fill="#E84B20"/>
</g>
<g opacity="0.2857">
<path d="M78.1436 75.4801C56.7367 119.179 79.186 170.896 133.996 204.165C142.396 209.263 151.26 213.933 160.318 218.036C185.31 229.399 216.622 238.591 256.005 246.133C300.118 254.579 350.465 260.663 390.923 265.557L397.061 266.304C399.949 266.658 402.749 266.993 405.479 267.29C447.749 271.929 468.359 270.969 505.241 265.953C521.404 263.748 540.227 259.906 559.673 254.828C577.524 250.166 598.477 244.02 625.61 235.467L627.214 234.957C670.484 221.282 715.241 207.145 763.78 207.26C823.402 207.408 871.755 227.677 922.908 249.144C962.123 265.597 1002.67 282.609 1049.73 290.531C1111.12 300.871 1172.71 295.606 1227.06 290.968L1228.66 290.834C1279.36 286.508 1333.18 283.228 1384.54 294.57C1431.98 305.045 1481.51 333.39 1478.1 370.867C1476.46 388.834 1460.97 407.392 1434.48 423.115C1419.31 432.125 1402.13 439.776 1385.5 447.172C1376.6 451.137 1367.39 455.227 1358.68 459.463C1336.27 470.366 1316.32 482.633 1299.34 495.925C1237.83 544.001 1211.17 605.955 1224.32 670.386C1226.04 678.934 1228.53 687.637 1231.69 696.251C1257.99 767.472 1329.49 834.984 1433.03 886.364L1434.92 884.949C1332.02 833.882 1260.96 766.795 1234.82 696.032C1231.68 687.479 1229.22 678.846 1227.5 670.357C1214.46 606.4 1240.92 544.901 1301.97 497.186C1318.81 484 1338.63 471.822 1360.86 460.999C1369.53 456.788 1378.71 452.704 1387.6 448.756C1404.29 441.328 1421.56 433.646 1436.87 424.546C1463.85 408.533 1479.63 389.574 1481.31 371.173C1484.82 332.639 1434.04 303.532 1385.38 292.795C1333.27 281.29 1279 284.589 1227.89 288.952L1226.29 289.086C1172.25 293.701 1111.02 298.927 1050.29 288.703C1003.81 280.878 963.518 263.969 924.552 247.626C872.921 225.964 824.175 205.494 763.442 205.359C714.149 205.244 669.074 219.481 625.47 233.256L623.866 233.766C596.8 242.296 575.897 248.427 558.112 253.074C538.835 258.106 520.197 261.911 504.187 264.096C467.763 269.06 447.408 270.003 405.691 265.425C402.979 265.128 400.195 264.794 397.342 264.441L391.204 263.694C350.832 258.812 300.588 252.74 256.667 244.335C217.685 236.874 186.742 227.797 162.069 216.582C153.136 212.543 144.416 207.947 136.142 202.93C82.1943 170.177 60.1166 119.259 81.1979 76.2078L78.1436 75.4801Z" fill="#E84B20"/>
</g>
<g opacity="0.3333">
<path d="M88.7454 71.1268C66.3574 114.773 90.7166 167.666 147.971 199.751C156.697 204.639 165.886 209.089 175.286 212.957C200.535 223.425 231.51 231.599 272.762 238.702C298.857 243.195 326.994 247.1 354.23 250.871C375.926 253.873 396.41 256.715 414.384 259.65L416.344 259.973C418.496 260.328 420.578 260.673 422.624 260.99C464.937 267.659 482.6 269.25 518.122 266.923C534.375 265.858 553.565 262.961 573.628 258.528C593.084 254.228 615.807 248.141 641.177 240.442C644.972 239.28 648.785 238.118 652.58 236.947C693.039 224.518 734.87 211.674 779.884 210.926C839.163 209.944 888.028 228.858 939.755 248.886C978.144 263.751 1017.84 279.121 1063.27 286.451C1121.35 295.835 1179.55 292.225 1230.88 289.05L1239.69 288.511C1297 285.008 1344.53 285.116 1390.17 296.976C1436 308.886 1480.26 337.212 1475.85 373.661C1473.14 396.127 1451.15 414.039 1433.19 425.111C1418.87 433.945 1402.76 441.565 1387.18 448.938C1378.39 453.086 1369.31 457.379 1360.76 461.8C1339.36 472.892 1320.52 485.224 1304.75 498.465C1247.67 546.279 1225.49 607.239 1242.25 670.119C1244.44 678.411 1247.37 686.839 1250.96 695.17C1280.5 763.528 1353.44 828.323 1456.31 877.62L1458.15 876.177C1355.88 827.174 1283.4 762.789 1254.05 694.873C1250.49 686.603 1247.58 678.244 1245.41 670.012C1228.75 607.606 1250.78 547.111 1307.41 499.676C1323.05 486.542 1341.75 474.298 1362.98 463.295C1371.51 458.89 1380.55 454.613 1389.32 450.473C1404.97 443.068 1421.16 435.417 1435.61 426.501C1453.9 415.227 1476.27 396.96 1479.05 373.975C1483.57 336.521 1438.18 307.429 1391.18 295.223C1344.86 283.186 1296.85 283.07 1239.04 286.599L1230.23 287.147C1179.17 290.306 1121.28 293.892 1063.81 284.605C1018.92 277.353 979.468 262.085 941.309 247.314C889.105 227.107 839.78 208.007 779.477 209.023C733.795 209.782 691.647 222.718 650.903 235.231C647.107 236.393 643.312 237.564 639.499 238.718C614.23 246.395 591.608 252.451 572.252 256.72C552.425 261.101 533.471 263.964 517.456 265.011C482.428 267.294 464.973 265.727 423.145 259.135C421.117 258.818 419.034 258.474 416.9 258.119L414.922 257.796C396.896 254.85 376.378 252.007 354.647 248.996C327.462 245.226 299.36 241.331 273.369 236.858C232.5 229.828 201.874 221.743 176.945 211.414C167.704 207.603 158.658 203.226 150.057 198.411C93.752 166.854 69.8192 114.805 91.85 71.8392L88.7454 71.1268Z" fill="#E84B20"/>
</g>
<g opacity="0.381">
<path d="M99.3472 66.8079C75.6078 111.133 101.353 163.996 161.928 195.37C170.982 200.056 180.496 204.279 190.237 207.91C222.716 220.131 260.341 226.83 289.501 231.301C305.538 233.761 322.75 236.15 339.374 238.459C371.807 242.964 405.349 247.618 431.672 253.035L439.735 254.72C445.934 256.008 451.543 257.208 456.7 258.307C485.199 264.388 500.913 267.744 530.966 267.926C547.227 268.025 566.784 266.072 587.548 262.27C608.026 258.526 631.936 252.71 656.709 245.46C663.437 243.482 670.162 241.461 676.852 239.439C714.788 227.993 754.011 216.145 795.954 214.644C854.972 212.508 904.487 230.079 956.926 248.673C994.37 261.952 1033.1 275.676 1076.76 282.418C1131.32 290.838 1185.95 288.725 1234.15 286.846C1239.74 286.625 1245.23 286.418 1250.65 286.225C1297.9 284.528 1348.2 284.962 1395.7 299.411C1435.17 311.416 1479.23 338.799 1473.53 376.492C1470.21 398.385 1449.02 416.122 1431.83 427.143C1418.38 435.786 1403.35 443.349 1388.8 450.664C1380.14 455.022 1371.18 459.533 1362.74 464.181C1342.37 475.454 1324.63 487.86 1310.05 501.049C1257.39 548.599 1239.63 608.564 1260.1 669.903C1262.76 677.93 1266.15 686.084 1270.14 694.139C1302.84 759.605 1377.2 821.671 1479.5 868.923L1481.29 867.453C1379.59 820.486 1305.69 758.796 1273.19 693.764C1269.22 685.778 1265.86 677.676 1263.22 669.71C1242.92 608.855 1260.51 549.364 1312.77 502.202C1327.21 489.12 1344.8 476.811 1365.02 465.627C1373.4 461.011 1382.33 456.508 1390.98 452.157C1405.59 444.811 1420.69 437.216 1434.25 428.5C1451.74 417.283 1473.31 399.217 1476.69 376.839C1482.55 338.134 1437.37 310.02 1396.89 297.707C1348.63 283.035 1297.82 282.593 1250.1 284.3C1244.69 284.492 1239.17 284.707 1233.59 284.928C1185.63 286.789 1131.27 288.903 1077.23 280.552C1034.05 273.887 995.553 260.239 958.321 247.036C905.407 228.28 855.435 210.565 795.408 212.718C752.851 214.25 713.36 226.174 675.156 237.705C668.466 239.727 661.758 241.749 655.047 243.719C630.408 250.93 606.631 256.7 586.306 260.423C565.846 264.167 546.594 266.096 530.66 266C501.153 265.811 486.556 262.707 457.481 256.494C452.308 255.395 446.698 254.195 440.499 252.899L432.419 251.213C405.939 245.765 372.31 241.091 339.79 236.583C323.167 234.274 305.989 231.895 289.987 229.436C261.088 225.008 223.793 218.372 191.737 206.302C182.153 202.718 172.8 198.569 163.889 193.957C104.35 163.123 79.0677 111.139 102.418 67.5279L99.3472 66.8079Z" fill="#E84B20"/>
</g>
<g opacity="0.4286">
<path d="M109.966 62.4613C85.2328 106.793 112.975 160.837 175.903 190.954C185.267 195.438 195.123 199.433 205.189 202.838C236.853 213.613 272.467 219.323 306.243 223.883C314.761 225.036 323.518 226.181 332.395 227.338C373.912 232.76 416.831 238.366 448.98 246.396C451.549 247.039 454.015 247.679 456.376 248.298L456.865 248.426C469.579 251.74 479.407 254.734 488.094 257.373C506.504 262.977 519.806 267.021 543.813 268.897C559.995 270.157 579.937 269.158 601.472 265.989C622.922 262.835 647.383 257.473 672.246 250.474C681.677 247.809 691.163 244.966 700.332 242.224C735.968 231.554 772.808 220.522 812.028 218.339C870.891 215.061 921.26 231.271 974.581 248.428C1010.93 260.124 1048.52 272.213 1090.25 278.361C1141.05 285.843 1191.96 285.007 1236.88 284.275C1245.33 284.134 1253.59 284.004 1261.63 283.927C1322.47 283.333 1364.24 288.696 1401.28 301.835C1439.49 315.382 1477.94 342.854 1471.25 379.314C1467.33 400.625 1446.94 418.194 1430.51 429.175C1417.94 437.584 1404 445.065 1390.53 452.297C1381.96 456.899 1373.09 461.661 1364.77 466.562C1345.4 478.025 1328.8 490.496 1315.42 503.642C1267.1 550.936 1253.8 609.907 1278 669.698C1281.14 677.486 1284.97 685.366 1289.38 693.12C1325.14 755.648 1400.94 815.002 1502.76 860.246L1504.49 858.757C1403.25 813.781 1327.93 754.793 1292.4 692.684C1288 684.99 1284.21 677.163 1281.1 669.444C1257.1 610.139 1270.27 551.66 1318.2 504.763C1331.47 491.742 1347.92 479.368 1367.13 467.994C1375.38 463.125 1384.23 458.379 1392.79 453.785C1406.33 446.521 1420.33 439.008 1432.98 430.533C1449.69 419.374 1470.43 401.491 1474.41 379.729C1481.28 342.309 1441.87 314.129 1402.68 300.232C1365.06 286.884 1322.75 281.435 1261.22 282.031C1253.16 282.108 1244.89 282.246 1236.44 282.386C1191.72 283.117 1141.06 283.945 1090.68 276.528C1049.37 270.446 1012.01 258.424 975.856 246.786C922.06 229.476 871.234 213.123 811.382 216.461C771.618 218.677 734.526 229.785 698.656 240.525C689.505 243.268 680.018 246.102 670.62 248.759C645.942 255.713 621.65 261.038 600.385 264.165C579.223 267.278 559.691 268.265 543.871 267.035C520.45 265.204 507.376 261.227 489.282 255.72C480.559 253.063 470.679 250.058 457.861 246.723L457.371 246.595C454.976 245.975 452.51 245.327 449.924 244.683C417.478 236.583 374.403 230.954 332.747 225.51C323.87 224.353 315.113 223.209 306.612 222.056C273.096 217.53 237.777 211.874 206.518 201.241C196.611 197.893 186.931 193.963 177.71 189.553C115.886 159.969 88.6805 106.859 112.993 63.2741L109.966 62.4613Z" fill="#E84B20"/>
</g>
<g opacity="0.4762">
<path d="M120.529 58.1066C94.8057 102.444 124.583 157.613 189.794 186.438C199.448 190.706 209.644 194.48 220.067 197.655C252.498 207.585 288.645 212.324 322.885 216.331L329.384 217.09C376.292 222.57 429.474 228.784 466.17 239.594C468.87 240.387 471.434 241.192 473.875 241.967C489.348 246.852 500.07 251.421 509.516 255.452C523.995 261.628 535.443 266.505 556.5 269.68C572.6 272.107 592.905 272.051 615.224 269.533C637.526 267.015 662.548 262.092 687.594 255.298C699.546 252.044 711.473 248.481 723.016 245.025C758.061 234.543 791.149 224.644 827.882 221.854C886.778 217.378 938.177 232.226 992.591 247.946C1027.62 258.067 1063.85 268.528 1103.46 274.06C1150.23 280.595 1197.15 280.835 1238.56 281.05C1250.33 281.107 1261.43 281.167 1272.28 281.355C1329.68 282.334 1371.05 289.328 1406.48 303.951C1441.51 318.415 1476.21 346.453 1468.56 381.777C1464.07 402.493 1444.45 419.876 1428.77 430.81C1417.12 438.947 1404.31 446.301 1391.91 453.405C1383.39 458.288 1374.58 463.341 1366.4 468.527C1348.05 480.182 1332.57 492.712 1320.39 505.79C1276.36 552.799 1267.52 610.738 1295.5 668.933C1299.09 676.458 1303.38 684.058 1308.21 691.523C1346.91 751.031 1424.08 807.61 1525.54 850.845L1527.22 849.329C1426.34 806.336 1349.61 750.105 1311.19 690.992C1306.39 683.579 1302.14 676.04 1298.57 668.575C1270.82 610.867 1279.58 553.421 1323.23 506.836C1335.32 493.883 1350.65 481.45 1368.85 469.901C1376.99 464.748 1385.77 459.711 1394.27 454.835C1406.7 447.699 1419.58 440.321 1431.31 432.118C1447.23 421.013 1467.17 403.342 1471.75 382.201C1479.58 345.978 1444.02 317.235 1408.12 302.408C1372.09 287.533 1330.13 280.443 1272.05 279.44C1261.18 279.252 1250.04 279.19 1238.25 279.133C1197.02 278.924 1150.29 278.682 1103.88 272.194C1064.64 266.717 1028.6 256.305 993.741 246.241C938.854 230.385 887.016 215.42 827.15 219.957C789.907 222.789 755.045 233.218 721.338 243.301C709.829 246.741 697.918 250.304 686.017 253.543C661.172 260.284 636.385 265.155 614.305 267.656C592.427 270.12 572.602 270.183 556.953 267.832C536.537 264.755 525.338 259.989 511.16 253.943C501.626 249.876 490.798 245.26 475.114 240.308C472.62 239.522 470.039 238.717 467.304 237.914C430.187 226.97 376.763 220.731 329.647 215.227L323.148 214.468C289.151 210.495 253.281 205.799 221.253 195.985C211.006 192.868 200.986 189.16 191.492 184.956C127.47 156.66 98.2667 102.467 123.537 58.9011L120.529 58.1066Z" fill="#E84B20"/>
</g>
<g opacity="0.5238">
<path d="M131.076 53.7972C103.928 98.8693 135.124 153.948 203.653 181.911C213.595 185.971 224.112 189.511 234.906 192.447C266.297 201.04 300.841 204.913 339.473 208.745C389.597 213.725 446.199 220.093 483.268 232.739C485.907 233.639 488.41 234.552 490.791 235.444C507.356 241.641 517.866 247.693 527.122 253.036C539.158 259.985 549.561 265.982 569.096 270.348C585.076 273.92 605.742 274.822 628.876 272.964C651.926 271.11 677.507 266.635 702.834 260.024C717.174 256.272 731.337 252.009 745.049 247.893C778.023 237.979 809.158 228.608 843.629 225.279C902.785 219.562 955.481 233.042 1011.25 247.318C1044.69 255.877 1079.29 264.732 1116.52 269.636C1158.88 275.217 1201.51 276.305 1239.09 277.257C1254.41 277.646 1268.87 278.014 1282.73 278.644C1337.75 281.15 1377.46 289.554 1411.47 305.905C1426.91 313.328 1476.5 340.917 1465.66 384.045C1461.66 399.96 1448.24 416.624 1426.85 432.234C1416.15 440.056 1404.48 447.221 1393.19 454.161C1384.72 459.367 1375.95 464.76 1367.85 470.278C1350.55 482.114 1336.21 494.707 1325.17 507.711C1285.4 554.424 1281.01 611.309 1312.82 667.886C1316.89 675.147 1321.61 682.472 1326.87 689.637C1368.93 746.867 1445.43 799.247 1548.1 841.106L1549.71 839.563C1447.61 797.936 1371.56 745.888 1329.78 689.035C1324.56 681.923 1319.88 674.667 1315.85 667.458C1284.32 611.378 1288.66 554.996 1328.07 508.714C1339 495.826 1353.24 483.349 1370.37 471.619C1378.41 466.133 1387.16 460.765 1395.62 455.567C1406.95 448.612 1418.65 441.413 1429.43 433.543C1451.15 417.696 1464.79 400.749 1468.85 384.528C1479.94 340.341 1429.16 312.088 1413.34 304.474C1378.73 287.837 1338.44 279.285 1282.67 276.746C1268.75 276.114 1254.26 275.744 1238.92 275.355C1201.46 274.407 1158.99 273.324 1116.92 267.779C1080 262.911 1045.56 254.104 1012.26 245.575C956.001 231.18 902.867 217.574 842.812 223.389C807.899 226.764 776.564 236.187 743.388 246.163C729.71 250.271 715.581 254.527 701.325 258.256C676.602 264.708 650.616 269.264 628.145 271.068C605.538 272.893 585.406 272.026 569.948 268.566C551.127 264.361 540.975 258.509 529.227 251.732C519.828 246.307 509.191 240.165 492.292 233.855C489.858 232.944 487.32 232.021 484.628 231.102C447.048 218.277 390.1 211.863 339.666 206.855C301.275 203.048 266.974 199.209 235.968 190.723C225.366 187.837 215.025 184.353 205.26 180.368C138.022 152.927 107.419 98.8589 134.084 54.5991L131.076 53.7972Z" fill="#E84B20"/>
</g>
<g opacity="0.5714">
<path d="M141.676 49.4613C113.509 94.5562 146.851 150.729 217.58 177.351C227.81 181.202 238.649 184.519 249.797 187.206C282.234 195.097 316.874 197.925 353.545 200.915L356.094 201.12C403.722 205.025 463.179 211.357 500.417 225.845C502.73 226.75 505.136 227.744 507.776 228.883C524.665 236.226 534.097 243.396 543.218 250.324C553.449 258.093 563.099 265.432 581.763 270.975C597.623 275.681 618.649 277.539 642.582 276.346C666.022 275.179 692.854 271.037 718.126 264.692C734.738 260.505 751 255.564 766.726 250.784C797.745 241.355 827.041 232.448 859.394 228.637C919.112 221.597 973.449 233.731 1030.99 246.588C1062.51 253.629 1095.08 260.902 1129.61 265.177C1167.13 269.817 1203.39 271.419 1238.47 272.965C1257.83 273.82 1276.1 274.622 1293.25 275.906C1346.2 279.861 1384.22 289.698 1416.52 307.817C1434.34 317.812 1474.54 345.472 1462.84 386.29C1458.36 401.928 1445.62 417.859 1424.97 433.645C1415.26 441.085 1404.77 448.012 1394.62 454.711C1386.14 460.307 1377.38 466.088 1369.35 472.006C1353.12 484.023 1339.88 496.678 1330.02 509.608C1294.43 556.049 1294.49 611.881 1330.2 666.811C1334.72 673.816 1339.9 680.851 1345.56 687.723C1390.25 741.786 1468.11 791.441 1570.71 831.337L1572.26 829.776C1470.22 790.096 1392.82 740.737 1348.41 687.034C1342.79 680.223 1337.67 673.241 1333.19 666.289C1297.81 611.839 1297.73 556.528 1332.98 510.536C1342.75 497.721 1355.87 485.19 1371.95 473.28C1379.93 467.403 1388.68 461.629 1397.12 456.05C1407.3 449.334 1417.83 442.383 1427.6 434.894C1448.52 418.896 1461.45 402.706 1466.02 386.781C1477.99 345.017 1436.86 316.71 1418.61 306.479C1386.16 288.287 1346.36 277.963 1293.35 274.006C1276.12 272.719 1257.8 271.916 1238.41 271.06C1203.44 269.518 1167.29 267.928 1129.98 263.312C1095.71 259.071 1063.25 251.82 1031.86 244.808C973.865 231.851 919.076 219.616 858.493 226.763C825.751 230.621 796.27 239.582 765.067 249.064C749.391 253.829 733.179 258.755 716.651 262.919C691.647 269.196 665.136 273.289 642.004 274.441C618.684 275.603 598.247 273.824 582.947 269.282C565.038 263.97 556.062 257.148 545.666 249.246C536.817 242.523 526.785 234.898 509.488 227.378C506.812 226.213 504.353 225.2 501.97 224.275C464.133 209.563 404.191 203.163 356.201 199.229L353.652 199.016C317.204 196.042 282.771 193.229 250.718 185.436C239.761 182.79 229.116 179.53 219.063 175.753C149.709 149.648 117.032 94.521 144.683 50.2622L141.676 49.4613Z" fill="#E84B20"/>
</g>
<g opacity="0.619">
<path d="M152.228 45.0965C123.06 90.2233 158.598 147.49 231.441 172.769C241.96 176.42 253.119 179.505 264.638 181.953C295.772 188.622 328.46 190.696 363.073 192.894L372.702 193.506C416.451 196.342 479.059 202.068 517.552 218.95C519.891 219.975 522.237 221.085 524.73 222.328C541.543 230.717 550.169 239.208 558.534 247.426C567.659 256.394 576.283 264.868 594.418 271.588C610.14 277.417 631.525 280.221 656.258 279.718C680.377 279.221 707.768 275.541 733.388 269.355C752.224 264.792 770.463 259.17 788.101 253.731C817.264 244.739 844.806 236.247 875.148 232.01C935.848 223.535 992.339 234.343 1052.15 245.791C1081.24 251.36 1111.31 257.115 1142.7 260.739C1174.77 264.438 1205.95 266.325 1236.1 268.152C1260.17 269.605 1282.92 270.979 1303.74 273.168C1354.27 278.473 1391.71 290.094 1421.56 309.714C1441.25 322.667 1472.43 350.125 1460.01 388.53C1455.12 403.663 1442.7 419.311 1423.12 435.044C1414.43 442.044 1405.13 448.648 1396.14 455.032C1387.64 461.083 1378.82 467.336 1370.86 473.72C1355.69 485.917 1343.58 498.635 1334.87 511.499C1303.42 557.675 1307.93 612.455 1347.57 665.732C1352.56 672.473 1358.18 679.235 1364.26 685.816C1411.39 736.658 1490.57 783.601 1593.3 821.585L1594.78 819.998C1492.6 782.211 1413.85 735.538 1367.02 685.03C1361 678.502 1355.42 671.81 1350.48 665.113C1311.2 612.317 1306.72 558.067 1337.86 512.358C1346.49 499.618 1358.49 487.034 1373.5 474.943C1381.42 468.6 1389.81 462.639 1398.69 456.336C1407.7 449.927 1417.03 443.307 1425.76 436.267C1445.6 420.329 1458.19 404.448 1463.17 389.062C1475.86 349.822 1443.98 321.752 1423.84 308.511C1393.42 288.505 1355.34 276.676 1303.98 271.283C1283.04 269.082 1260.24 267.706 1236.11 266.242C1206.02 264.426 1174.93 262.542 1143 258.856C1111.83 255.256 1081.85 249.521 1052.84 243.972C992.582 232.441 935.657 221.551 874.128 230.142C843.448 234.428 815.738 242.966 786.409 252.012C768.821 257.435 750.649 263.043 731.931 267.575C706.63 273.687 679.594 277.319 655.817 277.811C631.767 278.311 611.023 275.605 595.901 270C578.506 263.552 570.122 255.3 561.22 246.57C552.707 238.202 543.898 229.551 526.621 220.925C524.075 219.654 521.659 218.525 519.265 217.464C480.064 200.277 416.852 194.488 372.708 191.621L363.078 191.01C328.671 188.827 296.172 186.76 265.422 180.181C253.956 177.751 243.304 174.802 232.819 171.161C161.42 146.391 126.618 90.2145 155.221 45.9469L152.228 45.0965Z" fill="#E84B20"/>
</g>
<g opacity="0.6667">
<path d="M162.816 40.7681C132.144 86.7018 169.167 143.876 245.333 168.211C256.265 171.709 267.447 174.484 279.493 176.716C309.576 182.326 340.712 183.712 373.667 185.184C378.868 185.417 384.069 185.65 389.306 185.901C456.866 189.155 505.793 197.965 534.699 212.063C537.047 213.214 539.403 214.46 541.712 215.763C558.238 225.13 565.987 234.903 573.506 244.362C581.632 254.591 589.303 264.242 607.118 272.179C622.699 279.112 644.428 282.885 669.961 283.062C694.725 283.247 722.675 280.021 748.676 273.986C769.703 269.089 789.816 262.774 809.277 256.666C836.666 248.063 862.537 239.945 890.943 235.345C953.227 225.262 1012.58 234.777 1075.4 244.851C1101.39 249.021 1128.26 253.323 1155.84 256.277C1181.63 259.035 1206.9 260.898 1231.33 262.708C1261.09 264.909 1289.22 266.978 1314.27 270.402C1363.41 277.115 1399.11 290.195 1426.66 311.574C1443.93 324.986 1470.86 353.1 1457.22 390.733C1451.93 405.336 1439.85 420.702 1421.28 436.414C1413.67 442.873 1405.62 449.054 1397.83 455.03C1388.83 461.929 1380.33 468.452 1372.39 475.412C1358.3 487.797 1347.32 500.568 1339.72 513.357C1312.35 559.29 1321.29 613.016 1364.94 664.627C1370.4 671.112 1376.47 677.592 1382.95 683.865C1432.95 732.118 1511.31 775.164 1615.88 811.808L1617.29 810.194C1513.25 773.738 1435.3 730.935 1385.63 682.991C1379.19 676.763 1373.19 670.345 1367.78 663.912C1324.54 612.792 1315.66 559.604 1342.76 514.139C1350.26 501.483 1361.14 488.846 1375.1 476.575C1383.01 469.657 1391.47 463.158 1400.44 456.276C1408.25 450.283 1416.33 444.086 1423.97 437.603C1442.75 421.71 1455 406.128 1460.36 391.297C1474.27 352.898 1446.76 324.195 1429.12 310.506C1401.05 288.701 1364.68 275.368 1314.67 268.532C1289.45 265.086 1261.25 263.006 1231.4 260.803C1207.01 259.002 1181.77 257.14 1156.08 254.385C1128.64 251.453 1101.84 247.153 1075.93 242.994C1012.66 232.855 952.899 223.267 889.804 233.476C861.094 238.125 833.871 246.666 807.567 254.931C788.173 261.024 768.144 267.317 747.267 272.176C721.619 278.128 694.076 281.309 669.689 281.127C644.875 280.957 623.859 277.327 608.881 270.67C591.793 263.065 584.312 253.65 576.393 243.675C568.741 234.041 560.84 224.084 543.813 214.428C541.45 213.088 539.023 211.806 536.603 210.618C507.111 196.237 457.538 187.269 389.256 183.974C384.02 183.723 378.802 183.489 373.601 183.257C340.834 181.791 309.887 180.412 280.186 174.874C268.348 172.682 257.375 169.957 246.637 166.525C171.997 142.684 135.748 86.6343 165.823 41.5923L162.816 40.7681Z" fill="#E84B20"/>
</g>
<g opacity="0.7143">
<path d="M173.378 36.4214C141.691 82.4032 180.991 140.661 259.199 163.627C270.402 166.918 281.907 169.486 294.339 171.456C323.588 176.136 353.452 176.904 385.08 177.705C391.985 177.883 398.924 178.062 405.901 178.284C406.244 178.296 406.604 178.308 406.947 178.319C453.492 179.861 516.011 185.788 551.856 205.164C554.178 206.432 556.491 207.786 558.688 209.203C574.804 219.508 581.656 230.518 588.257 241.171C595.424 252.703 602.181 263.591 619.814 272.754C635.254 280.781 657.324 285.496 683.641 286.385C683.71 286.387 683.761 286.389 683.83 286.391C709.185 287.231 737.625 284.463 763.923 278.593C787.128 273.404 809.042 266.369 830.256 259.565C855.906 251.333 880.138 243.557 906.666 238.657C971.418 226.7 1034.65 234.983 1101.6 243.746C1123.46 246.607 1146.06 249.568 1168.91 251.815C1187.21 253.613 1205.33 255.124 1222.87 256.573C1259.79 259.635 1294.66 262.535 1324.75 267.634C1372.79 275.779 1406.78 290.327 1431.7 313.426C1449.87 330.259 1468.57 357.722 1454.38 392.938C1448.73 406.99 1436.96 422.081 1419.39 437.789C1412.92 443.592 1406.13 449.223 1399.58 454.674C1390.44 462.269 1381.8 469.447 1373.85 477.099C1360.86 489.665 1350.99 502.487 1344.54 515.21C1321.18 560.94 1334.58 613.608 1382.26 663.513C1388.19 669.735 1394.7 675.925 1401.6 681.916C1453.49 726.812 1533.18 767.232 1638.43 802.048L1639.75 800.407C1534.99 765.76 1455.74 725.567 1404.17 680.955C1397.33 675.017 1390.88 668.879 1385.01 662.71C1337.78 613.288 1324.49 561.161 1347.61 515.925C1354 503.336 1363.76 490.646 1376.63 478.204C1384.53 470.601 1393.13 463.448 1402.24 455.869C1408.81 450.409 1415.61 444.762 1422.11 438.935C1439.86 423.054 1451.75 407.78 1457.49 393.535C1471.91 357.671 1452.87 329.677 1434.33 312.501C1408.89 288.925 1374.24 274.091 1325.3 265.789C1294.99 260.648 1260 257.744 1222.96 254.67C1205.44 253.212 1187.33 251.71 1169.08 249.914C1146.32 247.679 1123.77 244.719 1101.95 241.868C1034.57 233.048 970.937 224.718 905.409 236.811C878.612 241.762 853.128 249.939 828.479 257.846C807.349 264.627 785.518 271.632 762.498 276.784C736.57 282.572 708.571 285.296 683.627 284.469C683.558 284.467 683.507 284.465 683.438 284.463C657.893 283.599 636.555 279.063 621.721 271.354C604.801 262.554 598.201 251.918 591.191 240.647C584.454 229.794 577.483 218.575 560.864 207.956C558.595 206.502 556.21 205.095 553.799 203.79C516.901 183.843 453.043 177.855 405.68 176.354C398.704 176.131 391.747 175.952 384.825 175.773C353.385 174.97 323.693 174.216 294.808 169.59C282.6 167.654 271.322 165.136 260.312 161.903C183.714 139.406 145.224 82.316 176.282 37.2496L173.378 36.4214Z" fill="#E84B20"/>
</g>
<g opacity="0.7619">
<path d="M183.945 32.1068C167.925 54.6565 168.988 81.6299 186.863 106.096C204.049 129.631 235.484 148.949 273.069 159.083C284.561 162.183 296.369 164.52 309.171 166.234C337.766 170.102 366.652 170.281 397.214 170.464C405.595 170.519 414.026 170.568 422.464 170.702C469.412 171.442 532.932 176.844 568.964 198.304C571.296 199.699 573.531 201.167 575.632 202.674C591.335 213.872 597.221 226.106 602.938 237.936C609.147 250.802 615.01 262.96 632.496 273.366C647.794 282.467 670.189 288.129 697.29 289.737C723.311 291.301 752.376 288.969 779.139 283.236C804.522 277.789 828.216 269.99 851.145 262.456C874.04 254.928 897.701 247.137 922.391 241.999C991.028 227.715 1059.8 234.898 1132.64 242.495C1148.74 244.174 1165.39 245.914 1181.98 247.396C1190.95 248.202 1199.85 248.963 1208.66 249.722C1255.04 253.717 1298.85 257.491 1335.23 264.907C1382.43 274.525 1414.7 290.546 1436.77 315.313C1452.07 332.492 1467.06 360.29 1451.57 395.179C1445.51 408.822 1434.37 423.225 1417.54 439.209C1412.3 444.206 1406.85 449.12 1401.59 453.861C1392.2 462.327 1383.34 470.326 1375.38 478.838C1363.32 491.765 1354.82 504.291 1349.4 517.122C1330.01 562.664 1347.85 614.281 1399.64 662.459C1406.03 668.418 1412.99 674.327 1420.31 680.028C1474.51 722.112 1553.25 758.849 1661.03 792.352L1662.29 790.684C1554.99 757.334 1476.65 720.797 1422.77 678.97C1415.51 673.322 1408.62 667.457 1402.29 661.551C1351.02 613.858 1333.34 562.782 1352.51 517.752C1357.87 505.063 1366.28 492.679 1378.23 479.876C1386.15 471.422 1394.99 463.448 1404.34 455.007C1409.61 450.248 1415.07 445.326 1420.33 440.321C1437.32 424.19 1448.57 409.637 1454.69 395.826C1470.45 360.351 1455.18 332.05 1439.6 314.556C1417.06 289.272 1384.15 272.923 1336.01 263.113C1299.33 255.637 1255.36 251.848 1208.82 247.839C1200.01 247.081 1191.11 246.311 1182.16 245.514C1165.61 244.034 1148.98 242.303 1132.9 240.625C1059.65 232.98 990.464 225.758 921.105 240.205C896.196 245.387 872.418 253.208 849.423 260.775C826.612 268.279 803 276.046 777.836 281.449C751.476 287.094 722.885 289.365 697.313 287.859C671.036 286.303 649.376 280.853 634.688 272.112C617.883 262.102 612.143 250.204 606.057 237.605C600.255 225.569 594.25 213.118 578.059 201.572C575.902 200.021 573.577 198.499 571.156 197.059C534.282 175.103 469.813 169.593 422.265 168.824C413.793 168.689 405.361 168.641 396.964 168.585C366.573 168.399 337.857 168.218 309.608 164.403C297.031 162.722 285.43 160.417 274.166 157.385C237.385 147.473 206.649 128.568 189.809 105.513C172.297 81.5349 171.243 55.1059 186.939 33.0049L183.945 32.1068Z" fill="#E84B20"/>
</g>
<g opacity="0.8095">
<path d="M194.506 27.7547C177.967 50.3962 179.086 77.4486 197.576 101.996C215.491 125.759 248.065 144.898 286.929 154.491C298.693 157.4 310.822 159.514 324.01 160.966C352.112 164.089 381.527 163.712 409.969 163.337C419.495 163.216 429.345 163.08 439.07 163.085C477.796 163.099 548.41 166.801 586.148 191.402C588.436 192.904 590.628 194.488 592.653 196.109C607.838 208.178 612.805 221.577 617.6 234.529C622.872 248.771 627.861 262.23 645.254 273.913C660.392 284.077 683.128 290.685 710.996 293.01C737.625 295.235 767.249 293.378 794.427 287.787C822.023 282.101 847.46 273.505 872.065 265.188C893.34 258.003 915.314 250.568 938.155 245.26C1013.16 227.842 1090.41 234.251 1172.19 241.029C1179.81 241.662 1187.45 242.295 1195.1 242.911C1253.13 247.568 1304.52 252.228 1345.75 262.102C1391.72 273.117 1423.17 291.106 1441.9 317.105C1454.42 334.49 1465.79 362.524 1448.8 397.325C1442.39 410.47 1431.88 424.193 1415.73 440.527C1411.81 444.51 1407.82 448.415 1403.87 452.295C1394.15 461.848 1384.95 470.874 1376.92 480.474C1365.99 493.58 1358.58 506.157 1354.26 518.92C1339.03 563.667 1361.91 615.561 1417.01 661.291C1423.87 666.996 1431.26 672.624 1439 678.027C1495.13 717.155 1572.85 750.374 1683.62 782.563L1684.79 780.877C1574.49 748.822 1497.14 715.785 1441.36 676.889C1433.69 671.532 1426.36 665.948 1419.56 660.296C1365.01 615.026 1342.36 563.7 1357.41 519.474C1361.68 506.862 1369.01 494.427 1379.81 481.452C1387.8 471.91 1396.95 462.917 1406.66 453.389C1410.61 449.509 1414.59 445.595 1418.53 441.604C1434.81 425.147 1445.41 411.299 1451.88 398.021C1469.13 362.685 1457.56 334.194 1444.82 316.513C1425.7 289.957 1393.59 271.59 1346.67 260.348C1305.08 250.377 1253.46 245.701 1195.21 241.029C1187.57 240.413 1179.93 239.78 1172.31 239.148C1090.11 232.33 1012.48 225.891 936.751 243.481C913.725 248.834 891.634 256.299 870.293 263.516C845.805 271.794 820.484 280.351 793.14 285.987C766.417 291.481 737.286 293.312 711.156 291.129C684.131 288.875 662.149 282.512 647.589 272.74C630.81 261.477 625.927 248.276 620.761 234.301C615.879 221.126 610.844 207.512 595.186 195.071C593.089 193.397 590.824 191.759 588.446 190.203C549.771 164.985 478.09 161.188 438.783 161.181C429.025 161.175 419.158 161.31 409.614 161.431C380.045 161.819 352.098 162.177 324.324 159.09C311.377 157.663 299.473 155.582 287.936 152.74C249.926 143.354 218.051 124.629 200.516 101.362C182.391 77.3192 181.298 50.8113 197.498 28.6429L194.506 27.7547Z" fill="#E84B20"/>
</g>
<g opacity="0.8571">
<path d="M205.078 23.4349C188.001 46.1508 189.177 73.2991 208.281 97.9093C226.927 121.919 260.656 140.879 300.8 149.939C312.836 152.657 325.286 154.549 338.842 155.739C366.576 158.189 395.326 157.269 423.121 156.377C433.773 156.038 444.782 155.684 455.635 155.521C487.086 155.054 564.441 156.935 603.275 184.557C605.538 186.176 607.67 187.867 609.616 189.594C624.264 202.507 628.294 217.042 632.183 231.097C636.331 246.061 640.604 261.529 657.958 274.514C672.897 285.696 695.957 293.239 724.629 296.331C751.952 299.21 782.134 297.819 809.625 292.393C839.487 286.493 866.66 277.025 892.935 267.876C912.558 261.039 932.864 253.97 953.848 248.577C1032.99 228.228 1119.29 232.191 1208.15 238.488C1253.64 241.714 1311.57 246.991 1356.21 259.356C1401.76 271.971 1431.44 291.469 1446.98 318.959C1461.31 344.33 1460.98 371.446 1445.98 399.543C1437.45 415.527 1424.33 430.589 1413.86 441.918C1411.39 444.595 1408.91 447.248 1406.44 449.883C1396.19 460.837 1386.53 471.182 1378.41 482.181C1368.62 495.467 1362.3 508.094 1359.1 520.797C1347.71 565.445 1375.14 616.248 1434.36 660.197C1441.69 665.639 1449.52 670.996 1457.66 676.1C1531.46 722.315 1629.24 752.083 1706.16 772.852L1707.24 771.138C1630.61 750.447 1533.24 720.803 1459.87 674.865C1451.8 669.806 1444.02 664.501 1436.77 659.104C1378.16 615.609 1351 565.374 1362.24 521.265C1365.43 508.722 1371.67 496.228 1381.35 483.091C1389.43 472.168 1399.06 461.856 1409.27 450.935C1411.75 448.291 1414.22 445.639 1416.69 442.961C1427.23 431.558 1440.42 416.405 1449.03 400.279C1464.22 371.806 1464.55 344.3 1449.99 318.531C1434.13 290.445 1403.81 270.535 1357.3 257.652C1312.23 245.163 1253.94 239.847 1208.21 236.606C1118.92 230.278 1032.17 226.3 952.343 246.822C931.192 252.26 910.82 259.352 891.131 266.221C864.989 275.332 837.949 284.745 808.356 290.594C781.336 295.925 751.699 297.3 724.893 294.473C697.082 291.477 674.779 284.204 660.385 273.439C643.612 260.889 639.601 246.363 635.335 230.988C631.378 216.718 627.297 201.961 612.225 188.66C610.206 186.88 608 185.119 605.648 183.446C567.23 156.126 494.924 153.044 455.231 153.64C444.326 153.802 433.3 154.155 422.615 154.502C394.973 155.39 366.394 156.307 338.97 153.884C325.655 152.719 313.429 150.852 301.636 148.192C262.363 139.339 229.383 120.777 211.136 97.2811C192.414 73.1841 191.283 46.6059 207.987 24.3617L205.078 23.4349Z" fill="#E84B20"/>
</g>
<g opacity="0.9048">
<path d="M215.642 19.0811C198.013 41.9046 199.248 69.1738 219.02 93.8823C238.412 118.121 273.276 136.875 314.677 145.334C326.9 147.86 339.671 149.538 353.681 150.46C381.153 152.293 409.394 150.853 436.698 149.459C448.334 148.862 460.379 148.253 472.222 147.9C503.968 146.947 581.967 147.946 620.441 177.646C622.659 179.363 624.731 181.169 626.635 183.02C640.728 196.749 643.817 212.376 646.797 227.5C650.01 243.843 653.352 260.751 670.734 275.036C685.494 287.26 708.877 295.745 738.333 299.56C765.818 303.081 797.358 302.113 824.892 296.902C857.105 290.8 886.009 280.401 913.948 270.336C931.905 263.872 950.476 257.183 969.592 251.783C1056.15 227.323 1154.68 229.914 1221.26 233.976C1283.13 237.758 1330.71 245.138 1366.72 256.518C1411.35 270.628 1440.08 292.228 1452.13 320.721C1462.78 345.939 1459.78 373.173 1443.21 401.653C1434.85 416.001 1423.29 430.109 1412.04 443.218L1409.61 446.039C1398.61 458.834 1388.21 470.928 1379.95 483.787C1371.32 497.244 1366.1 509.93 1363.96 522.564C1356.4 567.143 1388.38 616.874 1451.72 658.991C1459.51 664.18 1467.8 669.249 1476.36 674.063C1549.87 715.383 1645.2 742.232 1728.75 763.052L1729.73 761.311C1646.47 740.569 1551.52 713.826 1478.42 672.748C1469.95 667.979 1461.73 662.955 1454 657.81C1391.33 616.13 1359.66 566.978 1367.14 522.938C1369.23 510.456 1374.41 497.921 1382.95 484.614C1391.17 471.839 1401.53 459.786 1412.49 447.032L1414.91 444.202C1426.21 431.044 1437.84 416.878 1446.24 402.43C1463.01 373.608 1466.02 346.019 1455.21 320.44C1442.92 291.336 1413.57 269.276 1367.98 254.863C1331.56 243.351 1283.56 235.907 1221.25 232.093C1154.29 227.993 1055.21 225.402 967.97 250.06C948.738 255.498 930.1 262.202 912.077 268.689C884.27 278.699 855.499 289.052 823.623 295.088C796.593 300.206 765.616 301.158 738.683 297.705C710.09 294.004 687.465 285.815 673.234 274.032C656.4 260.188 653.256 244.288 649.936 227.457C646.905 212.12 643.782 196.272 629.3 182.148C627.339 180.236 625.177 178.36 622.885 176.581C583.374 146.067 504.005 145.023 471.714 145.992C459.803 146.352 447.742 146.969 436.071 147.556C408.919 148.938 380.832 150.375 353.685 148.56C339.915 147.647 327.386 146.001 315.406 143.526C274.925 135.249 240.827 116.902 221.851 93.1857C202.497 68.9996 201.291 42.3163 218.548 19.9725L215.642 19.0811Z" fill="#E84B20"/>
</g>
<g opacity="0.9524">
<path d="M226.224 14.743C208.107 37.6169 209.361 64.9293 229.659 89.6886C249.767 114.205 285.806 132.822 328.537 140.76C341.067 143.106 354.142 144.562 368.519 145.213C395.803 146.476 423.655 144.529 450.59 142.655C463.124 141.781 476.082 140.878 488.81 140.315C520.886 138.878 599.563 138.989 637.625 170.778C639.8 172.602 641.829 174.523 643.655 176.48C657.21 191.024 659.374 207.733 661.478 223.898C663.773 241.62 666.166 259.947 683.494 275.579C698.161 288.846 721.867 298.262 752.037 302.795C780.062 306.988 812.177 306.484 840.142 301.415C874.792 295.13 905.451 283.692 935.116 272.637C951.358 266.579 968.148 260.319 985.337 255.012C1073.4 227.807 1169.37 226.13 1234.37 229.502C1292.38 232.427 1340.44 240.572 1377.25 253.707C1421.67 269.571 1448.61 292.715 1457.3 322.504C1464.53 347.307 1458.87 374.659 1440.46 403.793C1432.17 416.919 1421.8 429.979 1411.76 442.608L1410.24 444.533C1399.49 458.088 1389.19 471.413 1381.51 485.423C1374.06 499.043 1369.92 511.778 1368.86 524.359C1365.09 568.92 1401.64 617.562 1469.11 657.808C1477.37 662.734 1486.09 667.532 1495.07 672.05C1571.37 710.497 1667.37 734.145 1751.34 753.286L1752.21 751.527C1668.51 732.445 1572.85 708.884 1496.99 670.655C1488.1 666.174 1479.45 661.421 1471.26 656.539C1404.5 616.714 1368.33 568.635 1372.04 524.631C1373.08 512.211 1377.16 499.626 1384.54 486.157C1392.18 472.238 1402.42 458.963 1413.15 445.466L1414.67 443.541C1424.73 430.878 1435.12 417.786 1443.45 404.593C1462.04 375.16 1467.74 347.487 1460.41 322.351C1451.53 291.937 1424.02 268.291 1378.66 252.092C1341.39 238.79 1292.82 230.544 1234.29 227.593C1168.89 224.2 1072.29 225.89 983.614 253.287C966.325 258.625 949.485 264.909 933.193 270.983C903.695 281.983 873.184 293.358 838.905 299.579C811.462 304.555 779.962 305.053 752.489 300.946C723.2 296.543 700.254 287.448 686.084 274.637C669.253 259.462 666.897 241.391 664.639 223.924C662.518 207.547 660.319 190.608 646.393 175.679C644.51 173.652 642.407 171.661 640.141 169.775C601.037 137.096 520.872 136.962 488.234 138.407C475.437 138.976 462.445 139.878 449.878 140.759C423.096 142.622 395.378 144.539 368.404 143.311C354.301 142.669 341.467 141.238 329.18 138.943C287.384 131.179 252.146 112.968 232.472 88.9832C212.609 64.7632 211.385 38.0448 229.114 15.6666L226.224 14.743Z" fill="#E84B20"/>
</g>
<path d="M236.8 10.4132C218.194 33.3291 219.45 60.6924 240.273 85.4768C261.097 110.278 298.326 128.759 342.405 136.178C383.301 143.062 424.722 139.425 464.786 135.905C478.112 134.734 491.897 133.526 505.406 132.725C530.674 131.235 616.17 129.074 654.799 163.903C673.351 180.624 674.792 200.765 676.182 220.243C677.543 239.366 678.972 259.134 696.265 276.119C728.554 307.815 802.347 315.131 855.384 305.925C892.571 299.469 925.046 286.894 956.445 274.741C970.91 269.146 985.854 263.354 1001.07 258.24C1137.14 212.497 1319.75 213.416 1408.13 260.289C1451.4 283.238 1491.66 327.134 1437.72 405.947C1431.92 414.419 1425.5 422.991 1419.29 431.281C1396.89 461.159 1373.73 492.063 1373.77 526.175C1373.82 576.015 1427.47 631.15 1513.79 670.06C1588.68 703.819 1675.93 723.324 1773.95 743.565L1774.73 741.787C1677.01 721.607 1590.04 702.179 1515.57 668.602C1430.14 630.085 1377.04 575.586 1376.98 526.363C1376.95 492.632 1399.98 461.91 1422.25 432.188C1428.48 423.89 1434.91 415.311 1440.73 406.805C1495.37 326.965 1454.26 282.323 1410.14 258.94C1320.75 211.535 1136.45 210.468 999.305 256.575C984.019 261.712 969.024 267.519 954.526 273.13C923.293 285.221 891.001 297.725 854.217 304.11C802.376 313.109 730.329 306.061 698.964 275.275C682.117 258.744 680.725 239.231 679.383 220.363C677.973 200.613 676.51 180.192 657.425 162.988C617.676 127.159 530.543 129.335 504.781 130.851C491.204 131.65 477.386 132.865 464.025 134.036C424.3 137.524 383.202 141.137 342.997 134.36C299.886 127.1 263.474 109.026 243.103 84.772C222.749 60.5275 221.507 33.7741 239.708 11.3615L236.8 10.4132Z" fill="#E84B20"/>
</g>
</svg>
