<svg width="1143" height="716" viewBox="0 0 1143 716" fill="none" xmlns="http://www.w3.org/2000/svg">
<g opacity="0.3">
<g opacity="0.0476">
<path d="M111.293 86.7899C92.6636 132.812 94.2282 185.145 115.493 226.77C118.893 233.463 122.812 239.952 127.141 246.049C140.095 264.308 158.2 280.289 179.505 292.261C208.209 308.405 240.797 316.538 271.27 315.154C273.416 315.059 275.591 314.911 277.749 314.705C312.782 311.368 341.095 295.29 367.097 279.101C375.312 274.022 383.738 268.527 391.885 263.215C396.302 260.332 400.745 257.433 405.206 254.573C421.169 244.268 435.616 236.005 449.381 229.299C486.047 211.423 517.609 205.596 545.919 211.484C587.671 220.17 615.017 251.126 643.965 283.897C668.57 311.745 694.002 340.536 729.125 354.349C770.955 370.736 817.545 363.339 861.657 352.901C865.243 352.062 868.831 351.205 872.431 350.349C911.216 341.123 951.311 331.577 990.369 338.831C1032.51 346.646 1073.92 382.739 1068.39 423.997C1064.47 453.233 1039.77 473.153 1025.4 482.433C1010.59 491.982 993.992 499.163 977.936 506.106C970.695 509.233 963.207 512.471 955.969 515.887C935.501 525.555 915.917 537.331 897.761 550.89C832.414 599.665 786.043 671.379 770.565 747.628C768.427 758.152 766.823 768.96 765.81 779.768C757.363 870.082 788.013 962.044 849.902 1032.05L851.572 1030.73C790.049 961.143 759.583 869.744 767.981 779.975C768.986 769.24 770.571 758.496 772.7 748.046C788.091 672.263 834.175 601.001 899.123 552.518C917.164 539.048 936.621 527.352 956.952 517.743C964.152 514.341 971.617 511.11 978.845 507.991C994.987 501.02 1011.68 493.802 1026.63 484.159C1041.31 474.698 1066.53 454.333 1070.55 424.295C1076.43 380.5 1033.71 344.792 990.76 336.821C951.226 329.504 910.89 339.088 871.875 348.363C868.287 349.22 864.7 350.068 861.114 350.907C817.355 361.255 771.194 368.616 729.952 352.454C695.337 338.838 670.084 310.244 645.645 282.592C617.722 250.992 588.858 218.314 546.37 209.471C517.552 203.471 485.501 209.355 448.372 227.458C434.532 234.203 420.01 242.504 403.983 252.858C399.521 255.727 395.078 258.626 390.649 261.508C382.515 266.812 374.102 272.289 365.912 277.363C340.127 293.408 312.076 309.357 277.533 312.636C275.423 312.838 273.283 312.981 271.172 313.079C241.128 314.437 208.975 306.41 180.637 290.474C159.622 278.657 141.751 262.898 128.981 244.893C124.713 238.887 120.843 232.487 117.493 225.874C96.4898 184.754 94.95 133.041 113.369 87.5272L111.293 86.7899Z" fill="#E84B20"/>
</g>
<g opacity="0.0952">
<path d="M119.188 83.3643C100.012 128.895 102.501 182.555 125.683 223.388C129.416 229.959 133.596 236.217 138.115 241.989C151.739 259.427 169.904 274.146 192.122 285.753C220.502 300.582 254.034 309.241 284.142 309.524C286.251 309.546 288.366 309.522 290.45 309.448C323.123 308.218 347.364 296.573 375.638 281.471C386.342 275.756 397.226 269.501 408.739 262.887L413.947 259.897C430.676 250.219 445.412 242.427 458.986 236.054C483.185 224.676 519.577 210.299 556.117 216.859C597.653 224.307 625.365 253.802 654.71 285.03C679.24 311.133 704.601 338.133 738.914 351.286C779.709 366.8 825.75 360.611 869.417 351.616L875.939 350.267C914.925 342.193 955.24 333.839 993.583 342.413C1033.31 351.291 1072.34 386.408 1066.12 427.645C1061.82 456.222 1037.84 475.999 1023.93 485.247C1009.68 494.727 993.751 502.002 978.358 509.029C971.233 512.281 963.859 515.653 956.749 519.195C936.917 529.085 918.087 540.973 900.791 554.536C838.589 603.253 795.53 674.042 782.656 748.744C780.878 759 779.635 769.54 778.961 780.06C773.335 867.629 805.484 956.641 867.145 1024.27L868.793 1022.93C807.499 955.719 775.559 867.254 781.15 780.213C781.827 769.768 783.063 759.293 784.822 749.1C797.619 674.874 840.403 604.539 902.216 556.134C919.407 542.661 938.111 530.843 957.806 521.023C964.879 517.495 972.239 514.139 979.352 510.887C994.832 503.823 1010.84 496.518 1025.23 486.942C1039.42 477.502 1063.9 457.296 1068.32 427.957C1074.7 385.553 1034.76 349.485 994.093 340.398C955.253 331.731 914.697 340.123 875.47 348.245L868.948 349.594C825.62 358.515 779.961 364.663 739.731 349.37C705.904 336.403 680.722 309.591 656.361 283.666C628.059 253.544 598.798 222.41 556.522 214.823C519.358 208.146 482.512 222.687 458.028 234.191C444.404 240.587 429.616 248.419 412.837 258.12L407.629 261.11C396.128 267.716 385.258 273.963 374.591 279.664C346.568 294.626 322.562 306.175 290.376 307.377C288.339 307.447 286.248 307.473 284.186 307.456C254.431 307.176 221.278 298.606 193.21 283.943C171.281 272.489 153.342 257.965 139.915 240.773C135.458 235.081 131.327 228.904 127.655 222.424C104.769 182.11 102.321 129.127 121.26 84.1385L119.188 83.3643Z" fill="#E84B20"/>
</g>
<g opacity="0.1429">
<path d="M127.091 79.9278C107.025 125.816 110.397 179.491 135.892 220.005C139.916 226.394 144.358 232.429 149.118 237.94C163.173 254.278 181.89 268.171 204.77 279.246C232.93 292.884 266.578 301.873 297.046 303.886C299.119 304.025 301.16 304.124 303.171 304.182C334.231 304.917 355.42 296.599 384.211 283.832C394.838 279.117 407.075 273.201 422.73 265.213C437.185 257.828 452.642 250.024 468.636 242.793C497.545 229.704 531.788 217.018 566.358 222.217C607.645 228.424 635.722 256.447 665.454 286.123C689.914 310.538 715.202 335.774 748.746 348.215C790.341 363.642 836.872 357.396 877.232 350.326L879.278 349.968C920.384 342.767 959.205 335.954 996.877 345.983C1035.17 356.166 1070.72 390.864 1063.95 431.291C1059.27 459.201 1036 478.834 1022.56 488.059C1008.86 497.461 993.626 504.815 978.896 511.926C971.873 515.319 964.602 518.825 957.606 522.501C938.422 532.613 920.346 544.613 903.887 558.186C843.96 607.551 805.217 675.623 794.813 749.856C793.406 759.864 792.513 770.126 792.178 780.348C789.365 865.143 823.002 951.204 884.444 1016.47L886.072 1015.1C824.997 950.243 791.572 864.71 794.363 780.435C794.701 770.279 795.586 760.091 796.987 750.147C807.324 676.401 845.803 608.785 905.34 559.741C921.695 546.259 939.644 534.337 958.691 524.294C965.649 520.632 972.896 517.133 979.906 513.748C994.712 506.598 1010.02 499.206 1023.86 489.717C1037.57 480.308 1061.32 460.253 1066.12 431.619C1073.09 390.038 1036.68 354.403 997.456 343.976C959.301 333.836 920.229 340.677 878.87 347.925L876.825 348.283C836.766 355.293 790.605 361.506 749.541 346.279C716.462 334.012 691.343 308.944 667.053 284.697C637.056 254.758 608.736 226.483 566.706 220.165C531.554 214.9 496.923 227.683 467.715 240.916C451.682 248.17 436.2 255.991 421.721 263.382C406.103 271.355 393.903 277.257 383.312 281.958C354.807 294.607 333.827 302.846 303.249 302.118C301.274 302.064 299.256 301.968 297.218 301.833C267.032 299.823 233.704 290.926 205.79 277.409C183.189 266.478 164.7 252.76 150.844 236.649C146.157 231.221 141.777 225.268 137.813 218.97C112.669 179.009 109.346 126.049 129.157 80.7481L127.091 79.9278Z" fill="#E84B20"/>
</g>
<g opacity="0.1905">
<path d="M134.987 76.506C114.301 122.138 118.657 177.137 146.094 216.627C150.4 222.824 155.114 228.638 160.105 233.885C174.52 249.115 193.802 262.185 217.401 272.734C244.774 284.976 278.494 294.272 309.921 298.251C311.933 298.505 313.924 298.738 315.875 298.91C345.961 301.599 364.992 295.895 392.743 286.186C404.053 282.229 417.091 276.953 431.474 270.512C436.629 268.207 441.949 265.789 447.393 263.329C457.424 258.78 467.791 254.073 478.246 249.525C507.656 236.706 541.901 223.367 576.559 227.568C617.653 232.549 646.154 259.117 676.344 287.238C700.68 309.922 725.85 333.371 758.527 345.127C798.87 359.629 843.119 355.003 884.985 349.017C921.516 343.795 962.927 337.87 1000.1 349.532C1035.57 360.65 1069.2 394.348 1061.7 434.916C1057.95 455.109 1043.55 474.98 1021.11 490.86C1007.98 500.158 993.454 507.581 979.4 514.759C972.467 518.303 965.284 521.967 958.388 525.804C939.851 536.138 922.529 548.261 906.907 561.835C850.139 611.115 814.623 678.289 806.894 750.975C805.846 760.724 805.314 770.709 805.306 780.651C805.285 862.641 840.397 945.759 901.665 1008.69L903.26 1007.3C842.373 944.758 807.463 862.158 807.485 780.681C807.496 770.815 808.02 760.903 809.061 751.218C816.733 679.04 851.997 612.323 908.385 563.382C923.89 549.898 941.085 537.864 959.496 527.6C966.354 523.787 973.512 520.128 980.433 516.593C994.55 509.376 1009.15 501.923 1022.41 492.536C1045.28 476.342 1060 456.02 1063.82 435.314C1071.54 393.602 1037.08 358.989 1000.73 347.587C963.066 335.785 921.381 341.735 884.599 346.995C843.009 352.937 799.08 357.543 759.238 343.209C726.991 331.614 701.993 308.314 677.816 285.789C647.361 257.404 618.592 230.601 576.765 225.528C576.45 225.493 576.136 225.458 575.833 225.424C540.954 221.506 506.686 234.833 477.276 247.661C466.808 252.217 456.429 256.923 446.385 261.48C440.953 263.95 435.633 266.359 430.479 268.664C416.145 275.082 403.169 280.328 391.921 284.264C364.453 293.874 345.641 299.509 316.011 296.862C314.096 296.685 312.139 296.465 310.15 296.213C278.943 292.269 245.452 283.036 218.281 270.882C194.951 260.456 175.91 247.554 161.696 232.532C156.78 227.359 152.139 221.629 147.882 215.521C120.877 176.584 116.601 122.35 137.004 77.3394L134.987 76.506Z" fill="#E84B20"/>
</g>
<g opacity="0.2381">
<path d="M142.903 73.0675C121.263 119.209 126.524 174.234 156.318 213.233C160.904 219.238 165.881 224.819 171.122 229.824C186.029 244.139 205.313 256.042 230.051 266.214C264.553 280.415 302.984 288.84 322.816 292.599C324.779 292.978 326.698 293.324 328.587 293.63C359.036 298.544 376.043 294.9 401.283 288.54C412.731 285.653 426.201 281.257 440.248 275.824C453.271 270.781 467.743 264.714 481.732 258.845L487.897 256.261C521.287 242.247 553.981 229.909 586.802 232.924C627.75 236.684 656.71 261.791 687.402 288.382C711.579 309.33 736.573 330.986 768.36 342.053C810.479 356.708 858.059 351.523 892.801 347.724C933.264 343.307 969.518 340.658 1003.38 353.089C1037.37 365.57 1067.57 398.929 1059.52 438.55C1055.52 458.246 1041.39 477.823 1019.73 493.669C1007.19 502.855 993.361 510.329 979.997 517.565C973.139 521.276 966.055 525.111 959.259 529.108C941.356 539.681 924.799 551.918 910.027 565.494C856.394 614.688 824.095 680.953 819.087 752.096C818.409 761.598 818.228 771.296 818.559 780.949C821.297 860.113 857.897 940.28 918.999 1000.91L920.573 999.496C859.842 939.238 823.458 859.571 820.745 780.914C820.417 771.337 820.603 761.705 821.274 752.267C826.248 681.634 858.317 615.837 911.569 566.993C926.236 553.517 942.676 541.37 960.441 530.875C967.2 526.892 974.271 523.065 981.103 519.37C994.53 512.103 1008.42 504.59 1021.08 495.314C1043.15 479.169 1057.57 459.159 1061.67 438.969C1069.95 398.235 1039 363.961 1004.15 351.168C969.823 338.574 933.287 341.219 892.536 345.678C856.086 349.658 810.725 354.617 769.108 340.12C737.74 329.203 712.908 307.687 688.892 286.878C657.92 260.051 628.725 234.73 587.008 230.884C553.66 227.829 520.685 240.256 487.022 254.389L480.857 256.973C466.881 262.834 452.432 268.903 439.434 273.931C425.474 279.327 412.09 283.696 400.738 286.565C375.789 292.855 358.965 296.445 328.966 291.619C327.101 291.316 325.205 290.972 323.265 290.596C303.514 286.855 265.269 278.46 230.946 264.345C206.465 254.285 187.414 242.52 172.709 228.406C167.553 223.476 162.65 217.978 158.124 212.064C129.18 174.216 123.891 118.71 144.894 73.9259L142.903 73.0675Z" fill="#E84B20"/>
</g>
<g opacity="0.2857">
<path d="M150.799 69.6415C128.503 115.644 134.819 171.992 166.51 209.851C171.367 215.652 176.616 221.012 182.098 225.773C197.215 238.954 217.036 250.058 242.67 259.715C271.383 270.531 304.776 279.062 331.609 285.922L335.679 286.968C337.594 287.463 339.452 287.933 341.268 288.361C369.386 295.02 383.659 294.813 409.779 290.904C421.227 289.184 434.782 285.815 448.978 281.146C462.012 276.859 477.427 271.104 497.494 263.015L498.68 262.532C530.687 249.594 563.792 236.22 596.992 238.279C637.771 240.815 667.317 264.476 698.571 289.534C722.531 308.739 747.302 328.597 778.13 338.968C818.333 352.502 861.407 349.313 899.412 346.506L900.53 346.426C935.99 343.809 973.397 342.438 1006.57 356.648C1037.2 369.771 1066.14 402.138 1057.25 442.188C1052.98 461.387 1039.13 480.668 1018.25 496.47C1006.3 505.527 993.195 513.045 980.523 520.313C973.739 524.209 966.717 528.228 960.017 532.423C942.773 543.22 926.969 555.578 913.022 569.153C862.515 618.25 833.431 683.617 831.155 753.228C830.837 762.462 831.017 771.892 831.675 781.255C837.217 858.671 874.335 933.911 936.208 993.131L937.75 991.689C876.261 932.83 839.362 858.062 833.858 781.146C833.204 771.849 833.028 762.493 833.339 753.324C835.604 684.225 864.469 619.338 914.605 570.61C928.433 557.143 944.132 544.875 961.238 534.157C967.911 529.987 974.909 525.975 981.68 522.095C994.402 514.796 1007.57 507.247 1019.64 498.101C1040.91 482.006 1055.02 462.307 1059.39 442.643C1068.53 401.465 1038.87 368.231 1007.45 354.778C973.795 340.364 936.081 341.738 900.335 344.378L899.218 344.458C861.426 347.252 818.604 350.414 778.831 337.03C748.391 326.787 723.771 307.049 699.961 287.972C668.415 262.686 638.635 238.793 597.093 236.227C563.377 234.139 530.037 247.608 497.784 260.639L496.597 261.122C476.581 269.189 461.202 274.929 448.218 279.203C434.144 283.83 420.722 287.167 409.383 288.871C383.585 292.741 369.49 292.941 341.739 286.369C339.935 285.943 338.089 285.474 336.197 284.981L332.127 283.936C305.351 277.091 272.027 268.577 243.438 257.813C218.063 248.26 198.475 237.293 183.551 224.284C178.143 219.597 172.979 214.321 168.194 208.611C137.003 171.341 130.802 115.865 152.762 70.5435L150.799 69.6415Z" fill="#E84B20"/>
</g>
<g opacity="0.3333">
<path d="M158.7 66.201C135.743 112.101 143.16 169.777 176.73 206.456C181.847 212.044 187.357 217.181 193.113 221.702C208.561 233.93 228.33 243.928 255.318 253.186C272.39 259.043 290.963 264.351 308.943 269.479C323.266 273.562 336.787 277.424 348.574 281.288L349.86 281.712C351.27 282.179 352.635 282.631 353.979 283.052C381.77 291.888 393.579 294.297 418.296 293.218C429.606 292.724 443.246 290.382 457.752 286.429C471.819 282.595 488.435 276.975 507.144 269.732C509.945 268.637 512.757 267.543 515.559 266.439C545.422 254.726 576.297 242.623 607.234 243.615C647.974 244.924 678.106 267.148 710.003 290.681C733.675 308.147 758.153 326.206 787.962 335.875C826.066 348.25 866.526 346.699 902.21 345.339L908.334 345.113C948.171 343.641 980.681 345.65 1009.84 360.184C1039.12 374.778 1064.46 406.91 1055.06 445.81C1049.28 469.787 1031.09 488.114 1016.86 499.268C1005.52 508.169 993.157 515.696 981.203 522.979C974.467 527.077 967.503 531.317 960.874 535.716C944.287 546.754 929.237 559.225 916.129 572.792C868.701 621.778 842.856 686.248 843.324 754.328C843.377 763.305 843.906 772.457 844.904 781.531C853.16 855.994 891.745 928.365 953.519 985.314L955.03 983.841C893.618 927.231 855.277 855.317 847.073 781.336C846.079 772.328 845.554 763.251 845.505 754.339C845.026 686.772 870.687 622.794 917.741 574.196C930.743 560.739 945.676 548.357 962.135 537.407C968.738 533.024 975.677 528.8 982.401 524.71C994.406 517.395 1006.83 509.838 1018.28 500.855C1032.76 489.497 1051.27 470.805 1057.19 446.274C1066.84 406.3 1040.86 373.303 1010.83 358.345C981.242 343.594 948.405 341.558 908.225 343.037L902.1 343.273C866.605 344.626 826.36 346.163 788.653 333.918C759.198 324.354 734.872 306.414 711.341 289.058C679.15 265.314 648.735 242.872 607.288 241.558C575.893 240.552 544.784 252.741 514.711 264.532C511.911 265.627 509.109 266.732 506.297 267.816C487.661 275.039 471.12 280.631 457.126 284.436C442.791 288.343 429.319 290.657 418.176 291.142C393.804 292.194 382.133 289.818 354.661 281.084C353.328 280.664 351.963 280.212 350.564 279.747L349.267 279.321C337.446 275.444 323.901 271.58 309.557 267.485C291.612 262.36 273.061 257.065 256.056 251.234C229.317 242.069 209.772 232.181 194.518 220.114C188.861 215.66 183.436 210.607 178.392 205.102C145.38 169.028 138.107 112.273 160.7 67.0885L158.7 66.201Z" fill="#E84B20"/>
</g>
<g opacity="0.381">
<path d="M166.599 62.7829C142.599 109.35 150.97 167.04 186.935 203.082C192.311 208.466 198.083 213.371 204.114 217.652C224.203 232.045 248.779 240.725 267.952 246.678C278.496 249.953 289.857 253.2 300.829 256.337C322.236 262.457 344.376 268.781 361.442 275.636L366.665 277.764C370.682 279.391 374.311 280.9 377.647 282.283C396.086 289.937 406.252 294.16 426.787 295.552C437.897 296.305 451.623 294.991 466.498 291.742C481.166 288.545 498.546 283.262 516.767 276.478C521.717 274.625 526.673 272.727 531.605 270.826C559.568 260.066 588.482 248.929 617.447 248.99C658.21 249.051 689.02 269.857 721.653 291.876C744.954 307.601 769.057 323.854 797.754 332.819C833.62 344.018 871.379 343.928 904.691 343.833C908.55 343.819 912.349 343.816 916.087 343.825C948.721 343.888 983.067 346.355 1013.05 363.736C1037.96 378.175 1063.32 409.282 1052.82 449.459C1046.72 472.794 1029.12 490.962 1015.42 502.092C1004.71 510.822 993.097 518.329 981.865 525.591C975.174 529.918 968.254 534.396 961.668 539.043C945.751 550.315 931.443 562.907 919.161 576.464C874.801 625.337 852.159 688.906 855.44 755.472C855.854 764.182 856.744 773.057 858.068 781.851C868.996 853.327 909.024 922.817 970.766 977.541L972.244 976.036C910.867 921.643 871.086 852.573 860.223 781.57C858.902 772.852 858.017 764.033 857.608 755.389C854.363 689.35 876.807 626.281 920.815 577.807C932.99 564.36 947.181 551.867 962.97 540.683C969.517 536.069 976.413 531.597 983.091 527.278C994.374 519.985 1006.04 512.446 1016.84 503.642C1030.77 492.315 1048.69 473.809 1054.92 449.957C1065.7 408.701 1039.71 376.766 1014.16 361.956C983.698 344.307 949.002 341.81 916.05 341.739C912.312 341.73 908.5 341.741 904.641 341.755C871.495 341.841 833.923 341.942 798.401 330.838C770.023 321.974 746.064 305.812 722.894 290.177C689.964 267.965 658.866 246.987 617.411 246.904C588.02 246.851 558.909 258.06 530.748 268.899C525.816 270.801 520.872 272.7 515.934 274.545C497.811 281.294 480.531 286.531 465.971 289.713C451.314 292.911 437.802 294.213 426.914 293.475C406.755 292.097 397.309 288.189 378.499 280.372C375.151 278.987 371.522 277.478 367.506 275.842L362.272 273.713C345.104 266.818 322.908 260.469 301.442 254.342C290.47 251.205 279.131 247.971 268.611 244.698C249.608 238.801 225.247 230.202 205.422 215.988C199.49 211.765 193.815 206.945 188.524 201.646C153.174 166.223 144.966 109.494 168.575 63.677L166.599 62.7829Z" fill="#E84B20"/>
</g>
<g opacity="0.4286">
<path d="M174.515 59.3489C149.836 105.877 159.366 164.902 197.16 199.683C202.783 204.861 208.829 209.536 215.121 213.585C234.904 226.394 258.276 233.93 280.591 240.161C286.218 241.737 292.01 243.311 297.883 244.905C325.344 252.368 353.733 260.085 374.328 269.969C375.973 270.761 377.548 271.545 379.056 272.302L379.368 272.459C387.489 276.517 393.69 280.117 399.173 283.291C410.791 290.029 419.186 294.893 435.285 297.859C446.138 299.853 459.96 299.576 475.25 297.037C490.48 294.509 508.157 289.736 526.394 283.225C533.314 280.744 540.303 278.075 547.056 275.501C573.308 265.483 600.448 255.126 627.667 254.347C668.521 253.176 700.153 272.554 733.639 293.063C756.464 307.044 780.073 321.496 807.552 329.746C841.012 339.787 875.992 340.916 906.857 341.919C912.663 342.105 918.34 342.294 923.857 342.531C965.594 344.317 993.238 351.726 1016.29 367.282C1040.06 383.321 1061.57 414.294 1050.61 453.103C1044.21 475.787 1027.18 493.805 1014.01 504.92C1003.94 513.432 993.096 520.895 982.613 528.11C975.939 532.7 969.035 537.451 962.49 542.373C947.229 553.887 933.687 566.593 922.231 580.15C880.892 628.914 861.477 691.586 867.583 756.63C868.365 765.101 869.605 773.698 871.271 782.185C884.805 850.621 926.287 917.25 988.05 969.791L989.495 968.264C928.087 916.033 886.865 849.816 873.41 781.837C871.749 773.416 870.526 764.877 869.746 756.481C863.699 691.966 882.938 629.816 923.936 581.461C935.295 568.034 948.72 555.427 963.852 544.002C970.347 539.111 977.237 534.377 983.898 529.795C994.433 522.549 1005.33 515.053 1015.47 506.474C1028.85 495.179 1046.18 476.839 1052.71 453.674C1063.95 413.843 1041.91 382.072 1017.52 365.619C994.113 349.817 966.116 342.293 923.91 340.483C918.381 340.245 912.692 340.063 906.885 339.878C876.161 338.882 841.347 337.753 808.172 327.799C780.966 319.636 757.501 305.266 734.799 291.354C701.014 270.662 669.095 251.112 627.554 252.309C599.956 253.101 572.631 263.531 546.207 273.613C539.465 276.188 532.477 278.848 525.582 281.322C507.478 287.793 489.924 292.533 474.826 295.038C459.8 297.532 446.261 297.813 435.651 295.865C419.945 292.971 411.693 288.189 400.275 281.566C394.771 278.371 388.536 274.758 380.348 270.674L380.035 270.517C378.504 269.757 376.93 268.964 375.273 268.171C354.487 258.2 325.996 250.453 298.443 242.96C292.571 241.367 286.778 239.792 281.163 238.219C259.02 232.034 235.841 224.567 216.31 211.926C210.116 207.944 204.18 203.347 198.642 198.254C161.51 164.088 152.184 106.084 176.444 60.3404L174.515 59.3489Z" fill="#E84B20"/>
</g>
<g opacity="0.4762">
<path d="M182.412 55.9191C157.05 102.436 167.777 162.78 207.365 196.289C213.225 201.251 219.543 205.704 226.121 209.524C246.58 221.465 270.49 227.988 293.223 233.651L297.538 234.724C328.683 242.47 363.994 251.254 387.218 264.309C388.927 265.267 390.541 266.232 392.076 267.161C401.811 273.015 408.35 278.343 414.109 283.042C422.938 290.241 429.92 295.927 443.776 300.172C454.371 303.416 468.277 304.166 483.993 302.356C499.697 300.545 517.684 296.264 536.014 289.977C544.763 286.965 553.55 283.62 562.054 280.374C587.874 270.532 612.251 261.237 637.88 259.71C678.971 257.259 711.552 275.23 746.042 294.256C768.248 306.506 791.209 319.168 817.355 326.68C848.221 335.552 880.293 337.68 908.593 339.562C916.638 340.092 924.225 340.599 931.621 341.234C970.729 344.572 997.824 353.721 1019.51 370.814C1040.96 387.721 1059.8 419.17 1048.38 456.741C1041.69 478.777 1025.22 496.634 1012.57 507.732C1003.18 515.993 993.123 523.368 983.393 530.491C976.709 535.388 969.793 540.455 963.283 545.689C948.69 557.455 935.902 570.274 925.274 583.811C886.92 632.462 870.732 694.237 879.699 757.754C880.841 765.966 882.442 774.287 884.447 782.485C900.521 847.836 943.437 911.583 1005.31 961.99L1006.72 960.431C945.208 910.307 902.532 846.951 886.574 782.033C884.586 773.893 883.001 765.64 881.863 757.493C872.967 694.506 889.013 633.257 927.035 585.045C937.577 571.638 950.248 558.918 964.722 547.26C971.193 542.059 978.084 537.008 984.755 532.119C994.513 524.962 1004.62 517.565 1014.08 509.236C1026.92 497.964 1043.66 479.81 1050.49 457.323C1062.19 418.794 1042.88 386.555 1020.9 369.225C998.85 351.839 971.368 342.562 931.794 339.171C924.386 338.535 916.776 338.026 908.72 337.494C880.535 335.625 848.593 333.503 817.968 324.695C792.072 317.258 769.222 304.655 747.127 292.474C712.336 273.283 679.477 255.169 637.711 257.647C611.725 259.199 586.041 268.991 561.208 278.459C552.729 281.689 543.954 285.035 535.242 288.033C517.058 294.271 499.242 298.505 483.692 300.306C468.288 302.076 454.708 301.353 444.41 298.208C430.975 294.094 424.144 288.538 415.499 281.489C409.685 276.747 403.082 271.366 393.214 265.431C391.645 264.489 390.019 263.522 388.288 262.553C364.799 249.337 329.327 240.517 298.044 232.736L293.729 231.663C271.156 226.047 247.428 219.582 227.225 207.781C220.757 204.029 214.549 199.654 208.786 194.768C169.92 161.873 159.415 102.599 184.332 56.8909L182.412 55.9191Z" fill="#E84B20"/>
</g>
<g opacity="0.5238">
<path d="M190.31 52.5023C163.835 99.79 175.551 160.153 217.571 192.907C223.667 197.662 230.247 201.884 237.123 205.466C257.109 215.945 280.079 221.485 305.856 227.144C339.299 234.495 376.934 243.596 400.098 258.651C401.747 259.723 403.301 260.804 404.775 261.856C415.03 269.169 421.166 276.086 426.567 282.191C433.591 290.131 439.663 296.984 452.273 302.452C462.588 306.925 476.577 308.72 492.741 307.651C508.845 306.585 527.141 302.806 545.637 296.724C556.111 293.271 566.553 289.263 576.661 285.394C600.97 276.073 623.925 267.263 648.107 265.069C689.606 261.301 723.322 277.878 759.004 295.432C780.4 305.957 802.534 316.846 827.162 323.599C855.188 331.284 884.18 334.158 909.742 336.684C920.161 337.715 929.996 338.689 939.377 339.92C976.6 344.811 1002.32 355.42 1022.74 374.331C1032.01 382.916 1061.13 414.511 1046.16 460.365C1040.64 477.286 1028.53 494.634 1011.15 510.531C1002.46 518.498 993.212 525.721 984.275 532.718C977.563 537.966 970.617 543.403 964.102 549.001C950.189 561.012 938.166 573.954 928.331 587.468C892.927 636.012 879.965 696.888 891.84 758.884C893.353 766.839 895.303 774.891 897.648 782.791C916.428 845.898 959.633 905.177 1022.59 954.212L1023.96 952.621C961.35 903.858 918.398 844.952 899.748 782.261C897.42 774.419 895.485 766.444 893.99 758.546C882.219 697.095 895.061 636.756 930.144 588.661C939.882 575.267 951.81 562.445 965.592 550.541C972.057 544.975 978.988 539.564 985.687 534.323C994.661 527.312 1003.93 520.055 1012.69 512.039C1030.34 495.901 1042.64 478.258 1048.26 461.012C1063.59 414.031 1033.77 381.676 1024.27 372.87C1003.49 353.629 977.4 342.838 939.665 337.88C930.249 336.645 920.391 335.668 909.961 334.636C884.48 332.119 855.593 329.257 827.762 321.621C803.341 314.92 781.306 304.089 760 293.602C724.004 275.901 690.01 259.171 647.878 263.008C623.387 265.232 600.285 274.092 575.827 283.471C565.743 287.333 555.326 291.334 544.913 294.767C526.858 300.702 508.271 304.551 492.571 305.588C476.775 306.642 463.145 304.905 453.168 300.573C441.019 295.306 435.094 288.619 428.237 280.875C422.752 274.677 416.545 267.659 406.081 260.21C404.574 259.136 402.997 258.044 401.316 256.949C377.833 241.68 339.97 232.516 306.319 225.123C280.703 219.501 257.893 214.007 238.152 203.659C231.399 200.137 224.929 195.984 218.941 191.316C177.714 159.173 166.227 99.9186 192.229 53.4833L190.31 52.5023Z" fill="#E84B20"/>
</g>
<g opacity="0.5714">
<path d="M198.219 49.0785C171.034 96.3891 184.029 158.072 227.801 189.511C234.132 194.059 240.973 198.058 248.137 201.392C268.968 211.173 292.193 215.602 316.781 220.287L318.491 220.61C350.422 226.718 390.029 235.909 412.991 252.968C414.417 254.034 415.89 255.198 417.499 256.527C427.778 265.094 432.981 273.175 438.014 280.985C443.66 289.741 448.983 298.013 460.793 304.717C470.83 310.409 484.902 313.25 501.5 312.93C517.756 312.619 536.856 309.247 555.273 303.446C567.382 299.616 579.382 294.961 590.989 290.459C613.881 281.576 635.503 273.185 658.325 270.39C700.452 265.227 735.536 280.446 772.689 296.569C793.037 305.399 814.071 314.52 836.969 320.5C861.85 326.992 886.396 330.169 910.151 333.24C923.255 334.936 935.627 336.531 947.144 338.599C982.714 344.976 1007.02 357.07 1025.97 377.832C1036.42 389.285 1059.11 420.614 1043.95 463.991C1038.14 480.61 1026.62 497.212 1009.72 513.34C1001.77 520.942 993.372 527.962 985.248 534.751C978.465 540.421 971.449 546.279 964.919 552.314C951.699 564.571 940.417 577.633 931.398 591.127C898.893 639.586 889.159 699.565 903.992 760.007C905.863 767.713 908.176 775.479 910.848 783.089C931.986 842.96 976.603 899.429 1039.88 946.408L1041.21 944.794C978.29 898.069 933.929 841.937 912.924 782.463C910.268 774.92 907.984 767.214 906.13 759.566C891.438 699.653 901.074 640.232 933.267 592.243C942.201 578.87 953.374 565.935 966.476 553.787C972.965 547.794 979.969 541.943 986.727 536.289C994.876 529.484 1003.3 522.439 1011.31 514.788C1028.43 498.442 1040.12 481.57 1046.04 464.647C1061.55 420.263 1038.34 388.202 1027.64 376.479C1008.6 355.632 983.155 342.944 947.55 336.563C935.975 334.488 923.568 332.889 910.44 331.19C886.766 328.129 862.29 324.969 837.546 318.511C814.82 312.579 793.865 303.485 773.596 294.691C736.15 278.442 700.774 263.097 658.036 268.341C634.939 271.171 613.182 279.611 590.154 288.544C578.585 293.033 566.621 297.673 554.573 301.482C536.352 307.221 517.481 310.553 501.438 310.86C485.265 311.172 471.582 308.44 461.9 302.946C450.566 296.519 445.614 288.831 439.879 279.925C434.997 272.347 429.463 263.753 418.935 254.98C417.306 253.621 415.8 252.434 414.33 251.345C390.996 234.02 351.069 224.737 318.896 218.583L317.187 218.251C292.749 213.592 269.662 209.188 249.077 199.528C242.038 196.245 235.319 192.316 229.096 187.855C186.175 157.025 173.452 96.4928 200.138 50.0596L198.219 49.0785Z" fill="#E84B20"/>
</g>
<g opacity="0.619">
<path d="M206.121 45.6428C178.236 92.9868 192.545 155.993 238.011 186.11C244.577 190.461 251.68 194.227 259.141 197.325C279.299 205.751 301.325 209.299 324.649 213.058L331.138 214.104C360.608 218.918 402.489 227.599 425.898 247.303C427.32 248.499 428.733 249.788 430.223 251.225C440.269 260.923 444.69 270.401 448.98 279.574C453.659 289.584 458.082 299.043 469.327 307C479.074 313.901 493.231 317.779 510.261 318.236C526.868 318.673 546.275 315.821 564.908 310.203C578.609 306.057 592.088 300.747 605.122 295.611C626.673 287.119 647.026 279.099 668.551 275.767C711.614 269.103 748.415 283.002 787.377 297.723C806.332 304.884 825.92 312.284 846.786 317.448C868.1 322.717 889.13 326.004 909.464 329.184C925.694 331.717 941.032 334.112 954.912 337.305C988.594 345.047 1012.21 359.052 1029.21 381.351C1040.43 396.072 1056.98 426.852 1041.74 467.645C1035.74 483.718 1024.49 500.043 1008.32 516.169C1001.15 523.345 993.62 530.07 986.342 536.572C979.457 542.734 972.324 549.103 965.75 555.646C953.221 568.148 942.704 581.334 934.477 594.814C904.848 643.195 898.34 702.276 916.156 761.158C918.398 768.607 921.06 776.104 924.071 783.425C947.444 839.99 993.462 893.657 1057.17 938.641L1058.46 936.994C995.095 892.245 949.326 838.886 926.1 782.691C923.118 775.429 920.471 768.009 918.259 760.61C900.607 702.259 907.039 643.749 936.377 595.858C944.518 582.508 954.949 569.462 967.348 557.067C973.882 550.566 980.675 544.496 987.86 538.077C995.153 531.549 1002.7 524.808 1009.92 517.59C1026.3 501.254 1037.71 484.686 1043.81 468.344C1059.38 426.665 1042.46 395.199 1030.99 380.15C1013.65 357.412 989.644 343.158 955.41 335.289C941.45 332.077 926.077 329.678 909.801 327.131C889.512 323.965 868.541 320.685 847.319 315.435C826.602 310.307 807.07 302.932 788.171 295.796C748.915 280.967 711.831 266.962 668.18 273.718C646.414 277.089 625.938 285.151 604.264 293.695C591.267 298.816 577.837 304.113 564.221 308.231C545.82 313.782 526.665 316.596 510.293 316.167C493.732 315.735 479.997 311.989 470.621 305.353C459.835 297.718 455.538 288.507 450.97 278.761C446.605 269.421 442.086 259.764 431.764 249.792C430.242 248.324 428.785 247.012 427.332 245.775C403.491 225.714 361.207 216.94 331.472 212.078L324.983 211.032C301.798 207.298 279.899 203.764 259.989 195.45C252.56 192.375 245.781 188.776 239.237 184.437C194.67 154.925 180.675 93.1207 208.022 46.6778L206.121 45.6428Z" fill="#E84B20"/>
</g>
<g opacity="0.6667">
<path d="M214.026 42.2122C184.96 90.4038 200.304 153.433 248.225 182.706C255.101 186.914 262.277 190.352 270.139 193.243C289.767 200.498 310.857 203.25 333.178 206.168C336.701 206.629 340.223 207.091 343.767 207.573C389.486 213.81 421.464 225.272 438.798 241.615C440.205 242.949 441.601 244.385 442.955 245.881C452.635 256.631 456.231 267.462 459.725 277.947C463.5 289.284 467.064 299.981 477.879 309.243C487.34 317.335 501.566 322.276 519.029 323.5C535.963 324.702 555.679 322.361 574.551 316.92C589.816 312.501 604.703 306.519 619.108 300.734C639.382 292.584 658.53 284.895 678.799 281.095C723.24 272.765 762.235 285.408 803.517 298.793C820.589 304.333 838.244 310.05 856.624 314.346C873.809 318.358 890.798 321.387 907.219 324.324C927.225 327.897 946.135 331.263 962.7 335.962C995.19 345.176 1017.36 360.698 1032.48 384.821C1041.97 399.955 1055.49 431.301 1039.55 471.249C1033.36 486.75 1022.39 502.798 1006.92 518.956C1000.57 525.599 993.971 531.924 987.586 538.041C980.21 545.101 973.244 551.777 966.587 558.946C954.761 571.704 944.998 585.003 937.553 598.459C910.749 646.783 907.457 704.965 928.316 762.275C930.916 769.476 933.939 776.695 937.28 783.708C963.081 837.662 1009.22 887.161 1074.45 930.831L1075.7 929.151C1010.8 885.705 964.9 836.485 939.272 782.877C935.95 775.913 932.966 768.763 930.383 761.621C909.722 704.855 912.96 647.256 939.497 599.424C946.856 586.108 956.521 572.948 968.239 560.307C974.867 553.182 981.807 546.531 989.158 539.487C995.556 533.353 1002.18 527.012 1008.55 520.344C1024.2 504 1035.33 487.728 1041.6 471.983C1057.86 431.222 1044.04 399.217 1034.36 383.772C1018.95 359.168 996.363 343.347 963.301 333.966C946.622 329.236 927.667 325.856 907.602 322.276C891.203 319.351 874.238 316.325 857.122 312.32C838.834 308.053 821.226 302.341 804.199 296.816C762.632 283.343 723.365 270.604 678.346 279.037C657.86 282.878 637.711 290.968 618.24 298.797C603.884 304.569 589.059 310.53 573.903 314.914C555.287 320.282 535.858 322.59 519.181 321.407C502.21 320.22 488.447 315.462 479.352 307.691C468.977 298.814 465.501 288.379 461.824 277.323C458.27 266.646 454.602 255.61 444.628 244.529C443.244 242.992 441.806 241.514 440.356 240.137C422.67 223.466 390.277 211.808 344.071 205.497C340.527 205.015 336.993 204.552 333.471 204.091C311.277 201.188 290.316 198.45 270.936 191.288C263.21 188.45 256.169 185.073 249.414 180.944C202.453 152.265 187.441 90.4771 215.941 43.2209L214.026 42.2122Z" fill="#E84B20"/>
</g>
<g opacity="0.7143">
<path d="M221.934 38.7888C192.155 87.031 208.873 151.382 258.443 179.299C265.544 183.299 272.978 186.533 281.153 189.16C300.377 195.39 320.709 197.431 342.244 199.58C346.945 200.052 351.67 200.526 356.412 201.05C356.645 201.076 356.89 201.104 357.123 201.13C388.751 204.683 430.558 213.608 451.725 235.936C453.095 237.397 454.442 238.948 455.7 240.565C464.937 252.319 467.702 264.458 470.359 276.202C473.248 288.914 475.969 300.917 486.447 311.504C495.621 320.778 509.919 326.753 527.799 328.781C527.846 328.786 527.881 328.79 527.927 328.795C545.157 330.731 565.133 328.904 584.185 323.651C600.998 319.005 617.25 312.317 632.982 305.85C652.004 298.026 669.974 290.635 689.014 286.435C735.487 276.187 777.372 287.679 821.717 299.84C836.194 303.809 851.162 307.918 866.428 311.266C878.655 313.947 890.811 316.311 902.576 318.585C927.341 323.384 950.73 327.925 970.455 334.64C1001.95 345.367 1022.7 362.419 1035.72 388.314C1045.22 407.183 1053.22 437.526 1037.32 474.883C1030.99 489.79 1020.27 505.567 1005.48 521.773C1000.03 527.761 994.387 533.55 988.945 539.156C981.343 546.965 974.168 554.346 967.38 562.266C956.269 575.273 947.26 588.684 940.606 602.126C916.576 650.436 916.524 707.712 940.455 763.407C943.426 770.35 946.8 777.282 950.479 784.016C978.17 834.485 1025.69 881.264 1091.72 923.044L1092.91 921.33C1027.2 879.752 979.926 833.235 952.412 783.085C948.761 776.411 945.417 769.537 942.474 762.653C918.778 707.498 918.811 650.808 942.582 603.02C949.172 589.72 958.083 576.448 969.085 563.568C975.832 555.7 982.982 548.344 990.557 540.551C996.013 534.937 1001.67 529.131 1007.14 523.118C1022.09 506.733 1032.92 490.763 1039.35 475.652C1055.52 437.607 1047.38 406.679 1037.69 387.423C1024.39 360.995 1003.24 343.608 971.159 332.675C951.287 325.906 927.816 321.355 902.971 316.539C891.219 314.257 879.073 311.903 866.881 309.226C851.673 305.893 836.739 301.789 822.285 297.831C777.653 285.592 735.505 274.032 688.476 284.395C669.243 288.639 650.345 296.412 632.065 303.927C616.395 310.372 600.205 317.03 583.526 321.645C564.742 326.825 545.076 328.621 528.126 326.717C528.079 326.712 528.044 326.708 527.997 326.702C510.642 324.734 496.814 318.98 488 310.073C477.947 299.907 475.288 288.182 472.461 275.756C469.747 263.792 466.937 251.424 457.41 239.31C456.11 237.651 454.722 236.039 453.298 234.535C431.509 211.549 388.795 202.503 356.599 198.961C351.857 198.438 347.121 197.962 342.408 197.488C321.003 195.345 300.786 193.326 281.801 187.17C273.774 184.588 266.487 181.416 259.508 177.486C210.958 150.141 194.591 87.0806 223.779 39.7989L221.934 38.7888Z" fill="#E84B20"/>
</g>
<g opacity="0.7619">
<path d="M229.832 35.3688C214.894 59.027 210.891 88.1518 218.852 115.26C226.504 141.335 244.664 163.446 268.651 175.905C275.985 179.716 283.669 182.717 292.144 185.088C311.068 190.426 330.838 191.797 351.756 193.241C357.491 193.643 363.262 194.039 369.023 194.528C401.076 197.242 443.672 205.658 464.607 230.266C465.961 231.865 467.235 233.539 468.412 235.249C477.211 247.963 479.099 261.394 480.944 274.381C482.943 288.506 484.829 301.853 494.99 313.786C503.88 324.223 518.239 331.241 536.535 334.081C554.098 336.828 574.431 335.5 593.782 330.411C612.139 325.574 629.749 318.133 646.789 310.945C663.804 303.764 681.39 296.329 699.216 291.797C748.774 279.197 794.657 289.748 843.255 300.911C853.995 303.378 865.104 305.933 876.22 308.208C882.227 309.443 888.193 310.627 894.101 311.804C925.196 318.005 954.56 323.861 978.197 333.341C1008.87 345.636 1028.18 364.226 1038.96 391.829C1046.44 410.975 1051.84 441.558 1035.1 478.541C1028.55 493.004 1018.39 508.078 1004.05 524.624C999.574 529.797 994.982 534.873 990.539 539.77C982.62 548.515 975.145 556.777 968.193 565.63C957.658 579.075 949.633 592.233 943.668 605.846C922.387 654.156 925.561 710.534 952.613 764.591C955.944 771.276 959.679 777.932 963.697 784.377C993.47 831.962 1041 874.783 1109.01 915.302L1110.16 913.555C1042.46 873.22 995.165 830.63 965.572 783.336C961.582 776.951 957.889 770.346 954.587 763.721C927.804 710.208 924.646 654.419 945.689 606.652C951.59 593.19 959.527 580.181 969.965 566.865C976.875 558.073 984.335 549.837 992.227 541.117C996.672 536.202 1001.28 531.118 1005.76 525.937C1020.24 509.238 1030.5 494.007 1037.13 479.366C1054.15 441.762 1048.65 410.626 1041.03 391.128C1030.02 362.949 1010.33 343.98 979.048 331.438C955.219 321.881 925.739 316.003 894.54 309.781C888.633 308.604 882.668 307.411 876.671 306.187C865.59 303.915 854.492 301.371 843.763 298.905C794.89 287.673 748.73 277.064 698.649 289.81C680.665 294.381 662.993 301.843 645.903 309.062C628.949 316.223 611.401 323.633 593.203 328.432C574.143 333.442 554.145 334.724 536.88 332.056C519.14 329.307 505.248 322.547 496.713 312.523C486.949 301.045 485.101 287.983 483.14 274.152C481.274 260.938 479.341 247.268 470.268 234.16C469.062 232.4 467.735 230.664 466.328 229.012C444.903 203.836 401.676 195.265 369.216 192.496C363.432 192.005 357.661 191.608 351.914 191.205C331.113 189.765 311.461 188.397 292.765 183.132C284.438 180.806 276.89 177.848 269.701 174.119C246.226 161.932 228.473 140.295 220.973 114.752C213.176 88.1845 217.089 59.647 231.727 36.4591L229.832 35.3688Z" fill="#E84B20"/>
</g>
<g opacity="0.8095">
<path d="M237.733 31.941C222.419 55.6969 218.438 84.9363 226.808 112.184C234.922 138.562 253.898 160.55 278.862 172.494C286.418 176.116 294.364 178.894 303.151 181.001C321.872 185.522 342.107 186.321 361.675 187.081C368.228 187.341 375.006 187.598 381.673 188.002C408.224 189.603 455.993 196.491 477.55 224.585C478.856 226.3 480.081 228.099 481.185 229.932C489.478 243.578 490.532 258.241 491.547 272.414C492.663 287.999 493.722 302.728 503.597 316.048C512.193 327.637 526.622 335.7 545.323 339.35C563.191 342.842 583.83 342.052 603.446 337.132C623.366 332.126 642.316 323.892 660.646 315.925C676.496 309.043 692.867 301.92 709.461 297.128C763.946 281.404 815.791 291.485 870.674 302.15C875.788 303.144 880.914 304.14 886.053 305.119C925.023 312.522 959.446 319.656 985.982 332C1015.57 345.77 1033.98 366.472 1042.25 395.296C1047.79 414.57 1050.66 445.289 1032.91 482.148C1026.2 496.07 1016.59 510.45 1002.65 527.415C999.261 531.552 995.845 535.603 992.455 539.628C984.111 549.539 976.217 558.902 969.027 568.933C959.231 582.629 951.948 595.898 946.74 609.494C928.445 657.159 935.025 714.097 964.782 765.704C968.482 772.141 972.567 778.519 976.926 784.665C1008.54 829.19 1056 868.223 1126.31 907.497L1127.4 905.725C1057.4 866.615 1010.16 827.794 978.74 783.534C974.423 777.439 970.379 771.113 966.707 764.735C937.246 713.646 930.726 657.331 948.805 610.22C953.948 596.786 961.155 583.667 970.841 570.108C977.989 560.138 985.844 550.807 994.174 540.923C997.563 536.897 1000.98 532.838 1004.38 528.692C1018.43 511.599 1028.13 497.089 1034.9 483.025C1052.93 445.599 1050 414.379 1044.37 394.777C1035.91 365.335 1017.12 344.199 986.922 330.145C960.152 317.681 925.578 310.521 886.458 303.092C881.33 302.115 876.204 301.119 871.09 300.124C815.92 289.399 763.82 279.27 708.81 295.15C692.082 299.983 675.625 307.134 659.725 314.048C641.481 321.978 622.618 330.175 602.879 335.136C583.592 339.971 563.296 340.753 545.762 337.327C527.628 333.787 513.672 326.021 505.404 314.879C495.876 302.036 494.844 287.591 493.755 272.298C492.72 257.88 491.657 242.983 483.104 228.915C481.96 227.022 480.694 225.162 479.337 223.385C457.245 194.587 408.761 187.553 381.81 185.936C375.12 185.529 368.331 185.271 361.766 185.01C341.423 184.218 322.198 183.458 303.696 178.99C295.069 176.919 287.272 174.186 279.86 170.646C255.445 158.96 236.875 137.447 228.936 111.62C220.727 84.9321 224.63 56.2813 239.629 33.0221L237.733 31.941Z" fill="#E84B20"/>
</g>
<g opacity="0.8571">
<path d="M245.627 28.5234C229.926 52.3573 225.966 81.7296 234.747 109.098C243.32 135.799 263.124 157.665 289.065 169.103C296.843 172.534 305.049 175.09 314.138 176.932C332.729 180.72 352.608 180.909 371.828 181.089C379.193 181.16 386.806 181.231 394.278 181.501C415.93 182.29 468.653 187.503 490.437 218.937C491.705 220.778 492.87 222.692 493.902 224.638C501.681 239.188 501.892 255.054 502.092 270.396C502.309 286.729 502.524 303.613 512.146 318.352C520.429 331.045 534.919 340.141 554.041 344.661C572.275 348.893 593.219 348.632 613.026 343.902C634.543 338.758 654.842 329.649 674.469 320.848C689.128 314.27 704.295 307.469 719.634 302.508C777.488 283.783 835.98 291.614 895.817 302.07C926.453 307.426 965.252 315.509 993.697 330.7C1022.72 346.2 1039.66 368.482 1045.49 398.814C1050.86 426.807 1045.87 456.083 1030.65 485.815C1021.99 502.729 1010.35 518.458 1001.18 530.264C999.017 533.055 996.855 535.818 994.694 538.563C985.745 549.973 977.303 560.75 969.801 572.296C960.755 586.244 954.203 599.623 949.774 613.213C934.123 660.97 944.016 716.973 976.914 766.879C980.986 773.059 985.419 779.168 990.106 785.016C1032.61 837.97 1094.44 874.145 1143.55 899.743L1144.59 897.937C1095.67 872.435 1034.09 836.41 991.838 783.773C987.193 777.976 982.788 771.927 978.758 765.798C946.203 716.407 936.393 661.029 951.85 613.848C956.236 600.43 962.713 587.192 971.659 573.401C979.116 561.934 987.531 551.192 996.453 539.815C998.614 537.061 1000.78 534.298 1002.94 531.508C1012.17 519.624 1023.88 503.799 1032.61 486.735C1048.03 456.606 1053.09 426.908 1047.63 398.475C1041.68 367.486 1024.38 344.734 994.748 328.905C966.025 313.561 926.984 305.422 896.187 300.039C836.061 289.532 777.265 281.667 718.91 300.55C703.449 305.554 688.232 312.377 673.522 318.986C653.993 327.752 633.795 336.807 612.472 341.908C593.005 346.554 572.437 346.82 554.548 342.664C536.001 338.284 521.981 329.511 513.999 317.291C504.7 303.046 504.499 287.19 504.273 270.408C504.064 254.831 503.857 238.723 495.855 223.737C494.783 221.731 493.579 219.738 492.26 217.835C470.708 186.745 421.659 180.441 394.331 179.453C386.824 179.179 379.199 179.107 371.81 179.042C352.696 178.865 332.934 178.68 314.551 174.934C305.624 173.129 297.567 170.608 289.946 167.25C264.565 156.072 245.205 134.666 236.816 108.537C228.207 81.7386 232.097 52.9839 247.46 29.6441L245.627 28.5234Z" fill="#E84B20"/>
</g>
<g opacity="0.9048">
<path d="M253.54 25.0793C237.437 49.0267 233.495 78.5598 242.717 106.09C251.763 133.096 272.386 154.811 299.301 165.667C307.243 168.903 315.709 171.245 325.158 172.82C343.682 175.937 363.308 175.547 382.284 175.167C390.372 175.002 398.742 174.841 406.928 174.948C428.874 175.229 482.206 179.53 503.382 213.23C504.602 215.178 505.706 217.216 506.688 219.296C513.944 234.721 513.317 251.743 512.705 268.217C512.039 286.019 511.362 304.437 520.776 320.599C528.755 334.425 543.305 344.564 562.842 349.905C581.078 354.848 602.885 355.103 622.689 350.607C645.859 345.34 667.514 335.291 688.449 325.563C701.903 319.316 715.818 312.851 729.88 307.803C793.555 284.933 860.696 291.803 905.652 298.945C947.432 305.589 978.779 315.534 1001.48 329.324C1029.62 346.423 1045.54 370.961 1048.79 402.264C1051.67 429.969 1044.83 459.288 1028.46 489.395C1020.21 504.562 1009.79 519.337 999.773 533.045L997.613 535.995C987.817 549.374 978.564 562.02 970.635 575.581C962.352 589.774 956.541 603.274 952.858 616.844C939.835 664.728 953.04 719.816 989.095 767.966C993.525 773.897 998.321 779.72 1003.35 785.279C1046.52 832.988 1107.2 865.953 1160.86 891.912L1161.83 890.071C1108.36 864.207 1047.93 831.372 1005 783.943C1000.02 778.436 995.268 772.665 990.868 766.784C955.193 719.133 942.105 664.684 954.968 617.38C958.598 603.971 964.355 590.634 972.549 576.599C980.433 563.127 989.658 550.524 999.414 537.187L1001.57 534.228C1011.64 520.468 1022.1 505.634 1030.4 490.36C1046.97 459.892 1053.88 430.188 1050.96 402.088C1047.64 370.114 1031.38 345.052 1002.63 327.586C979.677 313.637 948.056 303.606 905.975 296.909C860.766 289.711 793.25 282.817 729.07 305.873C714.921 310.958 700.958 317.436 687.454 323.705C666.62 333.379 645.065 343.383 622.137 348.593C602.696 353.01 581.277 352.76 563.407 347.915C544.443 342.732 530.36 332.944 522.668 319.617C513.551 303.955 514.187 286.634 514.867 268.301C515.481 251.594 516.123 234.331 508.669 218.463C507.66 216.315 506.506 214.197 505.246 212.179C483.501 177.557 429.237 173.151 406.915 172.865C398.68 172.761 390.298 172.93 382.188 173.084C363.319 173.457 343.799 173.85 325.495 170.767C316.209 169.21 307.902 166.914 300.119 163.743C273.803 153.122 253.634 131.878 244.782 105.454C235.754 78.5055 239.614 49.6072 255.377 26.1631L253.54 25.0793Z" fill="#E84B20"/>
</g>
<g opacity="0.9524">
<path d="M261.44 21.6544C244.989 45.6561 241.049 75.2643 250.626 102.899C260.115 130.263 281.572 151.905 309.498 162.267C317.684 165.325 326.399 167.443 336.15 168.743C354.65 171.242 374.103 170.29 392.915 169.379C401.668 168.953 410.719 168.513 419.552 168.432C441.813 168.207 495.78 171.59 516.31 207.569C517.482 209.633 518.537 211.796 519.446 213.989C526.191 230.291 524.74 248.462 523.343 266.043C521.803 285.315 520.224 305.246 529.368 322.881C537.1 337.846 551.711 349.019 571.616 355.176C590.11 360.876 612.234 361.662 632.314 357.337C657.194 351.972 680.242 340.866 702.54 330.134C714.749 324.252 727.37 318.173 740.098 313.143C805.304 287.355 871.451 289.521 915.459 295.865C954.753 301.437 986.298 312.243 1009.24 327.984C1036.94 346.994 1051.35 373.156 1052.08 405.752C1052.69 432.893 1044 462.257 1026.25 493.021C1018.25 506.882 1008.84 520.584 999.732 533.835L998.349 535.855C988.588 550.078 979.183 564.07 971.452 578.913C963.945 593.342 958.865 606.952 955.925 620.522C945.512 668.587 962.042 722.741 1001.26 769.091C1006.06 774.765 1011.21 780.319 1016.57 785.58C1062.17 830.35 1123.89 859.921 1178.15 884.118L1179.05 882.25C1124.97 858.129 1063.47 828.666 1018.14 784.15C1012.83 778.932 1007.72 773.43 1002.96 767.807C964.149 721.942 947.785 668.413 958.06 620.949C960.957 607.551 965.971 594.102 973.402 579.832C981.086 565.086 990.45 551.146 1000.18 536.985L1001.56 534.965C1010.69 521.679 1020.12 507.942 1028.15 494.01C1046.08 462.93 1054.86 433.221 1054.24 405.715C1053.5 372.435 1038.77 345.706 1010.49 326.295C987.265 310.354 955.381 299.416 915.739 293.796C871.464 287.413 804.881 285.235 739.218 311.205C726.417 316.264 713.758 322.367 701.511 328.263C679.337 338.944 656.403 349.988 631.789 355.298C612.083 359.545 590.381 358.778 572.252 353.194C552.929 347.214 538.782 336.42 531.31 321.97C522.428 304.85 523.987 285.197 525.507 266.202C526.93 248.391 528.398 229.969 521.466 213.236C520.529 210.965 519.436 208.723 518.213 206.588C497.124 169.603 442.14 166.134 419.491 166.343C410.611 166.428 401.537 166.865 392.759 167.298C374.054 168.203 354.699 169.128 336.406 166.681C326.841 165.401 318.286 163.32 310.259 160.327C282.944 150.192 261.965 129.024 252.68 102.253C243.307 75.2192 247.163 46.2551 263.26 22.7738L261.44 21.6544Z" fill="#E84B20"/>
</g>
<path d="M269.338 18.2326C252.54 42.2793 248.591 71.9703 258.525 99.6828C268.456 127.414 290.759 148.982 319.708 158.853C346.566 168.013 375.633 165.798 403.749 163.654C413.102 162.94 422.775 162.207 432.187 161.901C449.792 161.34 508.85 162.56 529.239 201.893C539.032 220.777 536.48 242.653 534.009 263.809C531.582 284.579 529.087 306.05 537.969 325.168C554.558 360.844 603.918 371.841 641.937 364.079C668.596 358.634 693.095 346.366 716.781 334.51C727.693 329.052 738.968 323.401 750.313 318.495C851.738 274.614 976.912 283.215 1029.33 337.666C1054.99 364.326 1074.9 413.548 1024.03 496.669C1018.56 505.604 1012.65 514.621 1006.93 523.342C986.302 554.772 964.967 587.281 958.999 624.232C950.269 678.218 977.401 740.172 1029.81 785.912C1075.27 825.598 1131.72 850.358 1195.44 876.364L1196.29 874.471C1132.76 848.543 1076.49 823.877 1031.28 784.407C979.417 739.129 952.559 677.887 961.168 624.569C967.077 588.031 988.284 555.714 1008.8 524.448C1014.53 515.719 1020.45 506.694 1025.94 497.724C1077.48 413.52 1057.12 363.454 1030.95 336.288C977.927 281.219 851.623 272.388 749.392 316.618C737.997 321.546 726.685 327.211 715.748 332.685C692.186 344.48 667.824 356.68 641.456 362.064C604.294 369.652 556.085 359.018 539.97 324.365C531.314 305.758 533.789 284.565 536.186 264.072C538.69 242.621 541.276 220.441 531.202 201.012C510.22 160.548 450.035 159.276 432.088 159.846C422.629 160.146 412.931 160.886 403.556 161.597C375.678 163.722 346.836 165.924 320.433 156.909C292.121 147.249 270.308 126.156 260.591 99.0374C250.884 71.9291 254.735 42.8992 271.167 19.3809L269.338 18.2326Z" fill="#E84B20"/>
</g>
</svg>
