<svg width="27" height="19" viewBox="0 0 27 19" fill="none" xmlns="http://www.w3.org/2000/svg">
<path d="M2.66792 0C1.96069 0 1.28243 0.22242 0.782339 0.61833C0.282251 1.01424 0.00130272 1.55121 0.00130272 2.11111V7.26645C0.00130272 7.82635 0.282251 8.36332 0.782339 8.75923C1.28243 9.15514 1.96069 9.37755 2.66792 9.37755L6.36919 9.37755C6.36919 10.1186 6.3132 10.8617 6.20386 11.6027C6.03853 12.388 5.7612 13.0868 5.37721 13.6969C4.99055 14.3091 4.49456 14.7883 3.88657 15.1388C3.28125 15.5314 2.51059 15.7278 1.57194 15.7278V19C3.11592 19 4.46523 18.7382 5.62521 18.2147C6.77509 17.6964 7.76372 16.9808 8.51849 16.1204C9.27601 15.1719 9.83435 14.1324 10.1718 13.0424C10.5118 11.8396 10.6782 10.6101 10.6678 9.37755L10.6678 2.11111C10.6678 1.55121 10.3868 1.01424 9.88675 0.61833C9.38666 0.22242 8.7084 0 8.00117 0L2.66792 0ZM18.6676 0C17.9604 0 17.2821 0.22242 16.7821 0.61833C16.282 1.01424 16.001 1.55121 16.001 2.11111V7.26645C16.001 7.82635 16.282 8.36332 16.7821 8.75923C17.2821 9.15514 17.9604 9.37755 18.6676 9.37755H22.3689C22.3689 10.1186 22.3129 10.8617 22.2036 11.6027C22.0383 12.388 21.7609 13.0868 21.3769 13.6969C20.9903 14.3091 20.4943 14.7883 19.8863 15.1388C19.281 15.5314 18.5103 15.7278 17.5717 15.7278V19C19.1156 19 20.4649 18.7382 21.6249 18.2147C22.7748 17.6964 23.7634 16.9808 24.5182 16.1204C25.2757 15.1719 25.8341 14.1324 26.1715 13.0424C26.5115 11.8396 26.6779 10.6101 26.6675 9.37755L26.6675 2.11111C26.6675 1.55121 26.3866 1.01424 25.8865 0.61833C25.3864 0.22242 24.7081 0 24.0009 0L18.6676 0Z" fill="#D23B3B" fill-opacity="0.41"/>
</svg>
