<svg width="35" height="25" viewBox="0 0 35 25" fill="none" xmlns="http://www.w3.org/2000/svg">
<path d="M31.3303 24.8727C32.2535 24.8748 33.1401 24.5864 33.7949 24.0711C34.4498 23.5558 34.8194 22.8557 34.8223 22.1248L34.8494 15.3953C34.8523 14.6644 34.4884 13.9626 33.8377 13.4443C33.187 12.9261 32.3028 12.6337 31.3796 12.6316L26.5481 12.6207C26.552 11.6534 26.629 10.6836 26.7756 9.71662C26.9956 8.69197 27.3613 7.78064 27.8657 6.98536C28.3737 6.18734 29.0236 5.56325 29.8191 5.10759C30.6113 4.59681 31.6183 4.3428 32.8436 4.34558L32.8608 0.0741624C30.8454 0.0695997 29.0827 0.407325 27.5657 1.08732C26.062 1.76042 24.7677 2.69161 23.778 3.81248C22.7841 5.04844 22.0498 6.40367 21.6036 7.82548C21.1535 9.39459 20.9298 10.999 20.9369 12.608L20.8988 22.0933C20.8958 22.8242 21.2597 23.5259 21.9104 24.0442C22.5612 24.5625 23.4454 24.8548 24.3686 24.8569L31.3303 24.8727ZM10.445 24.8254C11.3682 24.8275 12.2547 24.5392 12.9096 24.0238C13.5645 23.5085 13.934 22.8084 13.937 22.0775L13.9641 15.348C13.967 14.6171 13.6031 13.9153 12.9524 13.3971C12.3017 12.8788 11.4175 12.5864 10.4943 12.5844L5.6628 12.5734C5.6667 11.6061 5.7437 10.6363 5.89031 9.66934C6.11025 8.64469 6.47593 7.73336 6.98039 6.93808C7.48833 6.14006 8.13829 5.51597 8.93378 5.06031C9.726 4.54953 10.733 4.29552 11.9583 4.29829L11.9755 0.0268809C9.96004 0.0223182 8.19733 0.360044 6.6804 1.04004C5.17667 1.71314 3.88239 2.64433 2.89263 3.7652C1.89882 5.00116 1.16453 6.35639 0.718312 7.77819C0.268131 9.34731 0.0444649 10.9518 0.0516133 12.5607L0.0134383 22.046C0.0104968 22.7769 0.374411 23.4786 1.02512 23.9969C1.67584 24.5152 2.56005 24.8075 3.48323 24.8096L10.445 24.8254Z" fill="#D23B3B" fill-opacity="0.41"/>
</svg>
